<?xml version="1.0" encoding="utf-8"?>
<!-- Generator: Adobe Illustrator 25.3.1, SVG Export Plug-In . SVG Version: 6.00 Build 0)  -->
<svg version="1.1" id="Слой_1" xmlns="http://www.w3.org/2000/svg" xmlns:xlink="http://www.w3.org/1999/xlink" x="0px" y="0px"
	 viewBox="0 0 1243 377" style="enable-background:new 0 0 1243 377;" xml:space="preserve">
<style type="text/css">
	.st0{display:none;fill:none;}
	.st1{fill:#00A2E5;}
	.st2{fill:#EB001B;}
	.st3{fill:#7375CF;}
	.st4{fill:#1D1D1B;}
</style>
<g>
	<rect x="-46.97" y="-47.31" class="st0" width="471.31" height="471.31"/>
	<g>
		<path class="st1" d="M268.58,217.38v64.11H257.2c-7.43,0-13.46-6.08-13.46-13.59V109.43c0-7.01,5.63-12.7,12.58-12.7h12.26v58.99
			h77.21V63.16c0-17.62-14.15-31.91-31.61-31.91H164.07v314.2h150.11c17.46,0,31.61-14.29,31.61-31.91V217.4L268.58,217.38z"/>
		<path class="st2" d="M213.29,217.38L213.29,217.38l0.01-186.13H63.18c-17.46,0-31.61,14.29-31.61,31.91v250.38
			c0,17.62,14.15,31.91,31.61,31.91h150.11V235.54h-78.85v45.98h-12.27c-6.95,0-12.58-5.69-12.58-12.7v-51.45H213.29z M109.6,109.85
			c0-7.2,5.78-13.03,12.91-13.03h11.94v58.91H109.6V109.85z"/>
		<path class="st3" d="M164.07,217.38V63.16c0-17.62,14.15-31.91,31.61-31.91h17.63v186.13H164.07z M164.07,235.54v78
			c0,17.62,14.15,31.91,31.61,31.91h17.63V235.54H164.07z"/>
	</g>
</g>
<g>
	<path class="st4" d="M479.61,249.28h-72.7V144.54h22.94v87.36h49.76V249.28z"/>
	<path class="st4" d="M559.61,249.28h-21.2v-10.49c-6.53,5.61-11.83,9.12-15.88,10.53c-4.06,1.41-8.38,2.12-12.96,2.12
		c-7.04,0-12.88-2.28-17.51-6.85c-4.63-4.56-6.95-10.44-6.95-17.62c0-9.08,3.42-15.96,10.25-20.64c6.83-4.68,21.26-7.6,43.26-8.76
		v-2.15c0-5.05-1.74-8.71-5.21-10.98c-3.47-2.27-9.22-3.41-17.24-3.41c-5.47,0-13.3,2.08-23.49,6.26h-0.76v-16.89
		c10.75-2.59,20.48-3.89,29.19-3.89c13.58,0,23.39,2.19,29.43,6.57c6.05,4.38,9.07,11.34,9.07,20.88V249.28z M538.41,229.68v-20.29
		c-13.99,1.16-22.75,2.95-26.27,5.39c-3.52,2.43-5.28,5.8-5.28,10.11c0,4.59,1.23,7.78,3.68,9.59c2.46,1.81,6.3,2.71,11.54,2.71
		C527.59,237.18,533.04,234.68,538.41,229.68z"/>
	<path class="st4" d="M575.52,245.45v-19.74h0.83c9.59,7.74,19.69,11.61,30.3,11.61c10.75,0,16.12-2.92,16.12-8.76
		c0-2.36-0.83-4.16-2.5-5.39c-1.67-1.23-4.68-2.33-9.04-3.3c-3.01-0.56-7.3-1.46-12.86-2.71s-9.93-2.99-13.1-5.21
		c-3.17-2.22-5.53-4.91-7.05-8.06c-1.53-3.15-2.29-6.79-2.29-10.91c0-7.83,3.41-14.19,10.22-19.08c6.81-4.89,15.96-7.33,27.45-7.33
		c10.15,0,19.3,1.78,27.45,5.35v18.77h-0.56c-9.31-6.63-18.33-9.94-27.04-9.94c-4.49,0-8.25,0.83-11.26,2.5
		c-3.01,1.67-4.52,3.75-4.52,6.25c0,2.83,0.94,4.88,2.81,6.15c1.88,1.27,5.02,2.42,9.42,3.44c5.61,1.02,11.19,2.25,16.75,3.68
		c5.56,1.44,9.94,3.97,13.14,7.61c3.2,3.64,4.8,8.33,4.8,14.07c0,8.2-3.46,14.76-10.39,19.67c-6.93,4.91-16.27,7.37-28.04,7.37
		C594.5,251.5,584.28,249.48,575.52,245.45z"/>
	<path class="st4" d="M706.74,248.79c-5.7,1.39-11.79,2.08-18.28,2.08c-9.59,0-16.61-2.05-21.06-6.15s-6.67-10.74-6.67-19.91V182.9
		h-10.56v-14.11h10.63v-22.59h21.27v22.59h24.67v14.11h-24.67v33.15c0,8.53,1.09,14.09,3.27,16.68c2.18,2.6,5.84,3.89,10.98,3.89
		c3.29,0,6.56-0.81,9.8-2.43h0.63V248.79z"/>
	<path class="st4" d="M714.39,245.45v-19.74h0.83c9.59,7.74,19.69,11.61,30.3,11.61c10.75,0,16.12-2.92,16.12-8.76
		c0-2.36-0.83-4.16-2.5-5.39c-1.67-1.23-4.68-2.33-9.04-3.3c-3.01-0.56-7.3-1.46-12.86-2.71s-9.93-2.99-13.1-5.21
		c-3.17-2.22-5.53-4.91-7.05-8.06c-1.53-3.15-2.29-6.79-2.29-10.91c0-7.83,3.41-14.19,10.22-19.08c6.81-4.89,15.96-7.33,27.45-7.33
		c10.15,0,19.3,1.78,27.45,5.35v18.77h-0.56c-9.31-6.63-18.33-9.94-27.04-9.94c-4.49,0-8.25,0.83-11.26,2.5
		c-3.01,1.67-4.52,3.75-4.52,6.25c0,2.83,0.94,4.88,2.81,6.15c1.88,1.27,5.02,2.42,9.42,3.44c5.61,1.02,11.19,2.25,16.75,3.68
		c5.56,1.44,9.94,3.97,13.14,7.61c3.2,3.64,4.8,8.33,4.8,14.07c0,8.2-3.46,14.76-10.39,19.67c-6.93,4.91-16.27,7.37-28.04,7.37
		C733.36,251.5,723.14,249.48,714.39,245.45z"/>
	<path class="st4" d="M861.17,245.31c-8.99,4.08-17.12,6.12-24.39,6.12c-14.09,0-25.07-3.64-32.94-10.91
		c-7.88-7.27-11.81-17.65-11.81-31.14c0-13.58,3.98-24.1,11.95-31.59c7.97-7.48,18.63-11.22,31.97-11.22
		c8.71,0,17.12,2.06,25.23,6.19v19.6h-1.11c-7.88-7.04-15.64-10.56-23.28-10.56c-7.09,0-12.6,2.43-16.54,7.3
		c-3.94,4.87-5.91,11.63-5.91,20.29c0,8.66,1.98,15.3,5.94,19.91c3.96,4.61,9.58,6.92,16.85,6.92c7.74,0,15.38-3.52,22.94-10.56
		h1.11V245.31z"/>
	<path class="st4" d="M951.31,249.28h-21.47v-40.1c0-11.21-1.24-18.17-3.72-20.89c-2.48-2.71-6.5-4.07-12.06-4.07
		c-4.63,0-10.22,2.06-16.75,6.19v58.87h-21.34V139.88h21.34v40.17c6.67-5.47,12.01-9.08,16.02-10.84c4.01-1.76,8.19-2.64,12.54-2.64
		c16.96,0,25.44,9.94,25.44,29.82V249.28z"/>
	<path class="st4" d="M1027.21,190.55h-0.7c-2.87-0.74-6.72-1.11-11.54-1.11c-7.55,0-14.5,1.21-20.85,3.61v56.23h-21.34v-80.48
		h21.34v14.6c6.53-5.88,11.91-9.83,16.12-11.85c4.22-2.02,8.36-3.02,12.44-3.02c1.07,0,2.57,0.05,4.52,0.14V190.55z"/>
	<path class="st4" d="M1061.75,158.72h-22.87v-18.83h22.87V158.72z M1060.98,249.28h-21.34v-80.48h21.34V249.28z"/>
	<path class="st4" d="M1131.32,155.24h-0.56c-3.61-1.02-7.04-1.53-10.29-1.53c-5.65,0-9.54,0.98-11.68,2.95
		c-2.13,1.97-3.2,5.53-3.2,10.67v1.46h20.29v14.11h-19.53v66.37h-21.41V182.9h-10.98v-14.11h10.98v-2.78
		c0-17.93,9.87-26.9,29.61-26.9c6.53,0,12.12,0.39,16.75,1.18V155.24z"/>
	<path class="st4" d="M1188.87,248.79c-5.7,1.39-11.79,2.08-18.28,2.08c-9.59,0-16.61-2.05-21.06-6.15
		c-4.45-4.1-6.67-10.74-6.67-19.91V182.9h-10.56v-14.11h10.63v-22.59h21.27v22.59h24.67v14.11h-24.67v33.15
		c0,8.53,1.09,14.09,3.27,16.68c2.18,2.6,5.84,3.89,10.98,3.89c3.29,0,6.56-0.81,9.8-2.43h0.63V248.79z"/>
</g>
</svg>
