<?xml version="1.0" encoding="utf-8"?>
<!-- Generator: Adobe Illustrator 25.3.1, SVG Export Plug-In . SVG Version: 6.00 Build 0)  -->
<svg version="1.1" id="Слой_1" xmlns="http://www.w3.org/2000/svg" xmlns:xlink="http://www.w3.org/1999/xlink" x="0px" y="0px"
	 viewBox="0 0 833 603" style="enable-background:new 0 0 833 603;" xml:space="preserve">
<style type="text/css">
	.st0{fill:none;stroke:#4D4D4D;stroke-width:12;stroke-miterlimit:10;}
	.st1{fill:#4D4D4D;}
	.st2{fill:#3FA9F5;}
</style>
<g>
	<path class="st0" d="M360.22,38h155.29C531.24,38,544,50.76,544,66.49v301.02c0,15.74-12.76,28.49-28.49,28.49H296.49
		c-15.74,0-28.49-12.76-28.49-28.49V132.02c0-3.86,1.51-7.56,4.21-10.32l77.45-79.25C352.43,39.6,356.24,38,360.22,38z"/>
	<path class="st0" d="M268,132.02h62.56c16.26,0,29.44-13.33,29.44-29.77V44"/>
	<path class="st1" d="M489,99h-80c-3.31,0-6-2.69-6-6v0c0-3.31,2.69-6,6-6h80c3.31,0,6,2.69,6,6v0C495,96.31,492.31,99,489,99z"/>
	<path class="st1" d="M487,189H319c-3.31,0-6-2.69-6-6l0,0c0-3.31,2.69-6,6-6h168c3.31,0,6,2.69,6,6l0,0
		C493,186.31,490.31,189,487,189z"/>
	<path class="st1" d="M486,227H318c-3.31,0-6-2.69-6-6l0,0c0-3.31,2.69-6,6-6h168c3.31,0,6,2.69,6,6l0,0
		C492,224.31,489.31,227,486,227z"/>
	<path class="st1" d="M397,265h-77c-3.31,0-6-2.69-6-6l0,0c0-3.31,2.69-6,6-6h77c3.31,0,6,2.69,6,6l0,0
		C403,262.31,400.31,265,397,265z"/>
	<path class="st1" d="M396,306h-77c-3.31,0-6-2.69-6-6l0,0c0-3.31,2.69-6,6-6h77c3.31,0,6,2.69,6,6l0,0
		C402,303.31,399.31,306,396,306z"/>
	<path class="st1" d="M396,341h-77c-3.31,0-6-2.69-6-6l0,0c0-3.31,2.69-6,6-6h77c3.31,0,6,2.69,6,6l0,0
		C402,338.31,399.31,341,396,341z"/>
	<g>
		<path class="st2" d="M500.41,358.21c0.09,0.41-0.08,0.83-0.44,1.04c-5.21,3.05-13.78,5.94-23.59,5.94
			c-14.39,0-27.29-5.67-35.71-16.29c-4.91-5.73-8.38-13.35-9.93-22.7c-0.08-0.46-0.47-0.8-0.94-0.8h-8.11
			c-0.58,0-1.03-0.52-0.95-1.09l1.12-7.83c0.07-0.47,0.47-0.82,0.95-0.82h5.59c0.41-0.44,0.62-0.65,1.03-1.09
			c-0.08-2.07,0.04-4.18,0.17-6.17c0.04-0.55-0.4-1.02-0.95-1.02h-3.5c-0.6,0-1.06-0.55-0.94-1.15l1.61-7.83
			c0.09-0.44,0.48-0.76,0.94-0.76h3.62c0.45,0,0.83-0.32,0.93-0.76c1.99-9.41,6.14-17.26,11.71-23.23
			c8.48-9.37,20.1-14.8,34.15-14.8c9.06,0,16.69,2.18,21.86,4.55c0.42,0.19,0.63,0.66,0.51,1.11l-3.38,12.78
			c-0.15,0.57-0.78,0.87-1.31,0.62c-4.11-1.91-10.2-3.66-16.65-3.66c-8.01,0-15,2.8-20.11,8.63c-3.14,3.25-5.42,8.01-6.75,13.57
			c-0.14,0.6,0.32,1.17,0.93,1.17h39.09c0.63,0,1.09,0.6,0.92,1.2l-2.11,7.83c-0.11,0.42-0.49,0.71-0.92,0.71h-39.27
			c-0.49,0-0.91,0.37-0.95,0.86c-0.14,1.53-0.17,3.18-0.17,4.81v1.65c0,0.53,0.43,0.96,0.96,0.96h34c0.6,0,1.06,0.55,0.94,1.15
			l-1.61,7.83c-0.09,0.44-0.48,0.76-0.94,0.76h-30.49c-0.6,0-1.06,0.55-0.94,1.13c1.2,6.16,3.54,10.9,6.61,14.27
			c5.4,5.9,12.99,8.55,21.29,8.55c7.02,0,13.7-2.23,17.52-4.09c0.55-0.27,1.21,0.04,1.35,0.64L500.41,358.21z"/>
	</g>
</g>
<g>
	<path class="st1" d="M160.82,483.41c0,7.27-1.84,13.26-5.53,17.95c-3.68,4.69-9.35,8.14-17,10.35v0.28c1.78,0.66,3.4,1.6,4.86,2.82
		c1.45,1.22,2.98,3.02,4.58,5.38c1.6,2.37,3.4,5.62,5.42,9.75l13.59,27.74h-22.81l-9.85-20.62c-3.47-7.27-6.38-12.37-8.73-15.28
		c-1.55-1.92-3.09-3.39-4.61-4.4c-1.53-1.01-3.45-1.72-5.77-2.15c-2.32-0.42-5.48-0.63-9.47-0.63h-2.89v43.08H81.84v-103.2h42.8
		c11.54,0,20.46,2.49,26.75,7.46C157.68,466.91,160.82,474.07,160.82,483.41z M139.35,484.68c0-4.51-1.35-7.77-4.05-9.79
		c-2.7-2.02-6.89-3.03-12.57-3.03h-20.13v26.26h17.67c6.29,0,11.04-1.01,14.25-3.03C137.74,493.08,139.35,489.6,139.35,484.68z"/>
	<path class="st1" d="M207.28,544.3c4.18,0,7.61-0.95,10.31-2.85c2.7-1.9,4.56-4.42,5.6-7.57l19.71,3.1
		c-2.63,7.28-6.9,12.84-12.81,16.68c-5.91,3.85-13.16,5.77-21.75,5.77c-8.07,0-14.88-1.6-20.41-4.79
		c-5.54-3.19-9.69-7.68-12.46-13.48c-2.77-5.79-4.15-12.59-4.15-20.38c0-7.18,1.44-13.77,4.33-19.78
		c2.89-6.01,7.1-10.79,12.64-14.36c5.54-3.57,12.13-5.35,19.78-5.35c7.27,0,13.6,1.54,18.97,4.61c5.37,3.07,9.54,7.58,12.5,13.52
		c2.96,5.94,4.43,13.11,4.43,21.5v6.05h-52.51c0.47,5.54,2.09,9.81,4.86,12.81C199.07,542.8,202.73,544.3,207.28,544.3z
		 M191.52,512.55h32.73c-0.47-5.21-2.11-9.2-4.93-11.97c-2.82-2.77-6.55-4.15-11.19-4.15c-4.41,0-8.14,1.42-11.19,4.26
		C193.88,503.53,192.08,507.48,191.52,512.55z"/>
	<path class="st1" d="M289.85,497.06c-5.12,0-9.03,2.05-11.76,6.16c-2.72,4.11-4.08,9.82-4.08,17.14c0,6.85,1.36,12.38,4.08,16.58
		c2.72,4.2,6.76,6.3,12.11,6.3c3.71,0,6.77-1.23,9.19-3.7c2.42-2.46,4-5.99,4.75-10.59l19.43,3.38c-2.07,9.2-5.95,16.01-11.65,20.45
		c-5.7,4.43-13.27,6.65-22.7,6.65c-7.65,0-14.14-1.7-19.46-5.1c-5.33-3.4-9.33-8.05-12-13.94c-2.67-5.89-4.01-12.59-4.01-20.1
		c0-7.74,1.38-14.55,4.15-20.42c2.77-5.87,6.85-10.43,12.25-13.69c5.4-3.26,11.92-4.89,19.57-4.89c8.54,0,15.63,1.97,21.26,5.91
		c5.63,3.94,9.48,10,11.54,18.16l-19.36,3.52c-0.8-3.85-2.33-6.78-4.61-8.8C296.27,498.07,293.38,497.06,289.85,497.06z"/>
	<path class="st1" d="M379.12,481.3c8.21,0,14.5,2.19,18.87,6.58c4.37,4.39,6.55,10.55,6.55,18.48v51.32h-19.78V511
		c0-4.79-0.89-8.41-2.67-10.88c-1.79-2.46-4.76-3.7-8.94-3.7c-1.5,0-3.11,0.28-4.82,0.84c-1.71,0.56-3.18,1.38-4.4,2.46
		c-1.46,1.22-2.62,2.49-3.48,3.8c-0.87,1.31-1.54,2.99-2.01,5.03c-0.47,2.04-0.71,4.61-0.71,7.71v41.39h-19.78v-103.2h19.78v36.75
		c2.68-3.33,5.92-5.82,9.75-7.46C371.29,482.12,375.17,481.3,379.12,481.3z"/>
	<path class="st1" d="M470.56,511c0-4.79-0.89-8.41-2.67-10.88c-1.78-2.46-4.76-3.7-8.94-3.7c-4.55,0-8.27,1.63-11.16,4.89
		c-2.89,3.26-4.31,8.25-4.26,14.96v41.39h-19.78v-74.69h18.44v9.78c2.67-3.75,5.96-6.6,9.85-8.55c3.89-1.95,8.19-2.92,12.88-2.92
		c8.21,0,14.5,2.19,18.87,6.58c4.36,4.39,6.55,10.55,6.55,18.48v51.32h-19.78V511z"/>
	<path class="st1" d="M540.67,544.3c2.44,0,4.82-0.57,7.14-1.72c2.32-1.15,4.27-3.2,5.84-6.16c1.57-2.96,2.36-6.92,2.36-11.9v-41.53
		h19.78v74.69h-18.44v-9.79c-2.63,3.71-5.9,6.56-9.82,8.55c-3.92,1.99-8.2,2.99-12.85,2.99c-8.31,0-14.63-2.21-18.97-6.62
		c-4.34-4.41-6.51-10.61-6.51-18.58v-51.25h19.78v46.67c0,4.97,0.94,8.66,2.82,11.05C533.68,543.1,536.63,544.3,540.67,544.3z"/>
	<path class="st1" d="M642.18,511c0-4.79-0.89-8.41-2.67-10.88c-1.78-2.46-4.76-3.7-8.94-3.7c-4.55,0-8.27,1.63-11.16,4.89
		c-2.89,3.26-4.31,8.25-4.26,14.96v41.39h-19.78v-74.69h18.44v9.78c2.67-3.75,5.96-6.6,9.85-8.55c3.89-1.95,8.19-2.92,12.88-2.92
		c8.21,0,14.5,2.19,18.87,6.58c4.36,4.39,6.55,10.55,6.55,18.48v51.32h-19.78V511z"/>
	<path class="st1" d="M749.81,482.99v67.86c0,8.87-1.31,16.03-3.94,21.47c-2.63,5.44-6.65,9.41-12.07,11.9
		c-5.42,2.49-12.42,3.73-21.01,3.73c-21.07,0-32.38-8.45-33.93-25.34l20.48,3.31c0.47,2.39,1.82,4.14,4.05,5.24
		c2.23,1.1,5.62,1.65,10.17,1.65c5.4,0,9.54-1.38,12.42-4.15c2.89-2.77,4.33-7.2,4.33-13.3v-7.81h-0.28
		c-1.97,2.96-4.91,5.38-8.8,7.29c-3.9,1.9-8.19,2.85-12.88,2.85c-6.29,0-11.86-1.61-16.72-4.82c-4.86-3.21-8.62-7.7-11.3-13.45
		c-2.68-5.75-4.01-12.28-4.01-19.6c0-8.07,1.29-14.99,3.87-20.77c2.58-5.77,6.28-10.17,11.09-13.2c4.81-3.03,10.45-4.54,16.93-4.54
		c4.97,0,9.43,0.93,13.38,2.78c3.94,1.86,7.11,4.52,9.5,7.99h0.28v-9.08H749.81z M712.57,497.06c-3.38,0-6.27,0.9-8.66,2.71
		c-2.39,1.81-4.21,4.35-5.46,7.64c-1.24,3.29-1.87,7.09-1.87,11.4c0,4.6,0.66,8.69,1.97,12.28c1.31,3.59,3.2,6.4,5.67,8.41
		c2.46,2.02,5.36,3.03,8.69,3.03c3.43,0,6.44-0.99,9.05-2.96c2.6-1.97,4.62-4.72,6.05-8.24s2.15-7.58,2.15-12.18
		c0-4.22-0.72-8.01-2.15-11.37c-1.43-3.35-3.47-5.98-6.12-7.88C719.25,498.01,716.14,497.06,712.57,497.06z"/>
</g>
</svg>
