<?xml version="1.0" encoding="UTF-8"?>
<svg width="16px" height="16px" viewBox="0 0 16 16" version="1.1" xmlns="http://www.w3.org/2000/svg" xmlns:xlink="http://www.w3.org/1999/xlink">
    <!-- Generator: Sketch 55 (78076) - https://sketchapp.com -->
    <title>Group 92</title>
    <desc>Created with Sketch.</desc>
    <g id="Symbols" stroke="none" stroke-width="1" fill="none" fill-rule="evenodd">
        <g id="Discover-more" transform="translate(-19.000000, -459.000000)" fill="#666459">
            <g id="Group-13">
                <g transform="translate(3.000000, 88.000000)">
                    <g id="Group-9" transform="translate(16.000000, 371.000000)">
                        <g id="Group-3">
                            <path d="M3.4606214,0 C3.13406751,0 2.87053485,0.274304342 2.87053485,0.612377606 L2.87053485,1.53892534 L2.1636505,1.53972347 C0.968882585,1.53972347 0,2.54441058 0,3.78510802 L0,13.7546154 C0,14.9945168 0.968882585,16 2.1636505,16 L13.8363493,16 C15.0311172,16 16,14.9945168 16,13.7546154 L16,3.78510802 C16,2.54441058 15.0311172,1.53972347 13.8363493,1.53972347 L13.129465,1.53972347 L13.129465,0.612379647 C13.129465,0.274306383 12.8659323,2.04125868e-06 12.5393784,2.04125868e-06 C12.2136113,2.04125868e-06 11.9492918,0.274306383 11.9492918,0.612379647 L11.9492918,1.53892738 L8.59012579,1.53972347 L8.59012579,0.612379647 C8.59012579,0.274306383 8.32580636,2.04125868e-06 8.00003924,2.04125868e-06 C7.67427212,2.04125868e-06 7.40995269,0.274306383 7.40995269,0.612379647 L7.40995269,1.53892738 L4.05078664,1.53972551 L4.05078664,0.612381688 C4.05078664,0.274308425 3.7864672,4.08251737e-06 3.46070008,4.08251737e-06 L3.4606214,0 Z M14.8197876,13.7546134 C14.8197876,14.0249169 14.7160621,14.2848712 14.531668,14.4762392 C14.3472738,14.6676072 14.0967938,14.7752427 13.83631,14.7752427 L2.16361116,14.7752427 C1.62116426,14.7752427 1.18013357,14.3183478 1.18013357,13.7546134 L1.18013357,6.86699835 L14.8197876,6.86699835 L14.8197876,13.7546134 Z M7.40987401,2.76447664 L7.40987401,3.69102437 C7.40987401,4.02909763 7.67419345,4.30340197 7.99996056,4.30340197 C8.32572768,4.30340197 8.59004712,4.02909763 8.59004712,3.69102437 L8.59004712,2.76447664 L11.9492132,2.76447664 L11.9492132,3.69102437 C11.9492132,4.02909763 12.2135326,4.30340197 12.5392997,4.30340197 C12.8658536,4.30340197 13.1293863,4.02909763 13.1293863,3.69102437 L13.1293863,2.76447664 L13.8362706,2.76447664 C14.0967348,2.76447664 14.3472266,2.87132428 14.5316286,3.06348021 C14.7160307,3.25484821 14.8197482,3.513986 14.8197482,3.78510598 L14.8197482,5.64297799 L1.18009423,5.6421819 L1.18009423,3.78430989 L1.18009423,3.78510598 C1.18009423,3.22137157 1.62112492,2.76447664 2.16357182,2.76447664 L2.86966939,2.76447664 L2.86966939,3.69102437 L2.8704365,3.69102437 C2.8704365,4.02909763 3.13396916,4.30340197 3.46052306,4.30340197 C3.78629017,4.30340197 4.05060961,4.02909763 4.05060961,3.69102437 L4.05060961,2.76447664 L7.40987401,2.76447664 Z" id="Fill-1"></path>
                            <path d="M6.74262628,12.7174695 C6.97583861,12.9460287 7.34865886,12.9460287 7.58107251,12.7174695 L12.1281138,8.37634185 C12.2474475,8.26790951 12.3184215,8.11501148 12.3238824,7.95353223 C12.330122,7.79205499 12.2700659,7.63446794 12.1577526,7.51746239 C12.04622,7.40122969 11.8917947,7.33414171 11.7295644,7.33336087 C11.5681147,7.3318012 11.4129107,7.39654866 11.29904,7.51200053 L7.17629339,11.4561201 L5.11571874,9.39679041 C4.87939159,9.17679841 4.51204225,9.18382793 4.28350216,9.41161232 C4.05576074,9.63939271 4.04873242,10.0076037 4.26868279,10.2439713 L6.74262628,12.7174695 Z" id="Fill-2"></path>
                        </g>
                    </g>
                </g>
            </g>
        </g>
    </g>
</svg>