<?xml version="1.0" encoding="UTF-8"?>
<svg width="18px" height="18px" viewBox="0 0 18 18" version="1.1" xmlns="http://www.w3.org/2000/svg" xmlns:xlink="http://www.w3.org/1999/xlink">
    <!-- Generator: Sketch 55.2 (78181) - https://sketchapp.com -->
    <title>Group 10</title>
    <desc>Created with Sketch.</desc>
    <g id="Desktop" stroke="none" stroke-width="1" fill="none" fill-rule="evenodd">
        <g id="d-pdp-voucher" transform="translate(-1147.000000, -892.000000)" fill="#666459">
            <g id="Sticky-box" transform="translate(1111.000000, 282.000000)">
                <g id="Group-10" transform="translate(36.000000, 610.000000)">
                    <path d="M9,18 C6.61284,18 4.3236,17.05149 2.6361,15.3639 C0.9486,13.67631 0,11.38698 0,9 C0,6.61302 0.94851,4.3236 2.6361,2.6361 C4.32369,0.9486 6.61302,0 9,0 C11.38698,0 13.6764,0.94851 15.3639,2.6361 C17.0514,4.32369 18,6.61302 18,9 C18,11.38698 17.05149,13.6764 15.3639,15.3639 C13.67631,17.0514 11.38698,18 9,18 Z M9,1.56521739 C7.02818032,1.56521739 5.13736743,2.34862807 3.74330108,3.74330106 C2.34862808,5.13727817 1.56521739,7.02818025 1.56521739,8.99999991 C1.56521739,10.9718196 2.34862808,12.8626324 3.74330108,14.2566988 C5.13727822,15.6513718 7.02818032,16.4347826 9,16.4347826 C10.9718197,16.4347826 12.8626326,15.6513718 14.2566989,14.2566988 C15.6513719,12.8627216 16.4347826,10.9718196 16.4347826,8.99999991 C16.4347826,7.02818025 15.6513719,5.13736739 14.2566989,3.74330106 C12.8627218,2.34862807 10.9718197,1.56521739 9,1.56521739 Z M11.135269,12.2827586 L8.84513101,9.983743 L8.84439746,9.98447704 C8.6831704,9.82534071 8.59742953,9.60534409 8.60988674,9.37872791 L8.60988674,5.47813603 C8.60988674,5.04619292 8.96018948,4.69565217 9.3918393,4.69565217 C9.82348912,4.69565217 10.1737919,5.04619292 10.1737919,5.47813603 L10.1737919,9.02240489 L12.2843884,11.1344354 C12.6009779,11.4519722 12.6009779,11.966782 12.2836567,12.2835866 C11.9663356,12.6011233 11.4518753,12.6011233 11.1352858,12.2835866 L11.135269,12.2827586 Z" id="Fill-1"></path>
                </g>
            </g>
        </g>
    </g>
</svg>