<?xml version="1.0" encoding="UTF-8"?>
<svg width="19px" height="19px" viewBox="0 0 19 19" version="1.1" xmlns="http://www.w3.org/2000/svg" xmlns:xlink="http://www.w3.org/1999/xlink">
    <!-- Generator: Sketch 55 (78076) - https://sketchapp.com -->
    <title>Group 3</title>
    <desc>Created with Sketch.</desc>
    <g id="Symbols" stroke="none" stroke-width="1" fill="none" fill-rule="evenodd">
        <g id="header" transform="translate(-1568.000000, -241.000000)" fill="#666459">
            <g id="Group-26">
                <g id="Group-3" transform="translate(1568.000000, 241.000000)">
                    <path d="M18.2539913,11.2399648 C17.8557321,11.2399648 17.5079827,11.5877498 17.5079827,11.9860498 L17.5079827,16.6607201 C17.5079827,17.1075951 17.1602332,17.5058852 16.6629041,17.5058852 L2.33904052,17.50783 C1.89221117,17.50783 1.49396191,17.1600449 1.49396191,16.6626649 L1.49201731,2.33733514 C1.49201731,1.89046006 1.83976676,1.49217003 2.33709592,1.49217003 L6.36633841,1.49217003 C6.76459762,1.49217003 7.11234707,1.14438499 7.11234707,0.746085017 C7.11234707,0.347785044 6.76459762,0 6.36633841,0 L2.33709592,0 C1.04321851,0 0,1.04531485 0,2.33733514 L0,16.6626649 C0,17.9566747 1.04520786,19 2.33709592,19 L16.6609595,19 C17.9548369,19 18.9980554,17.9546852 18.9980554,16.6626649 L19,11.9860548 C19,11.5877548 18.6503109,11.2399697 18.2539913,11.2399697 L18.2539913,11.2399648 Z" id="Fill-1"></path>
                    <path d="M12.3019396,0.000204251495 C11.8956992,0.000204251495 11.5409808,0.357246077 11.5409808,0.766147357 C11.5409808,1.17504864 11.8956992,1.53209046 12.3019396,1.53209046 L16.3603863,1.53209046 L7.22888118,10.7234077 C6.92370627,11.0305816 6.92370627,11.4893508 7.22888118,11.7965451 C7.38146863,11.950132 7.58359956,12 7.78772929,12 C7.98986022,12 8.19396966,11.9481405 8.3465774,11.7965451 L17.4780825,2.60522782 L17.4780825,6.69025771 C17.4780825,7.09915899 17.8328009,7.45620082 18.2390412,7.45620082 C18.6452816,7.45620082 19,7.09915899 19,6.69025771 L19,0 L12.3019396,0.000204251495 Z" id="Fill-2"></path>
                </g>
            </g>
        </g>
    </g>
</svg>