<?xml version="1.0" encoding="UTF-8"?>
<svg width="52px" height="52px" viewBox="0 0 52 52" version="1.1" xmlns="http://www.w3.org/2000/svg" xmlns:xlink="http://www.w3.org/1999/xlink">
    <!-- Generator: Sketch 55 (78076) - https://sketchapp.com -->
    <title>icon/facebook</title>
    <desc>Created with Sketch.</desc>
    <defs>
        <polygon id="path-1" points="0 0 51.7875479 0 51.7875479 51.2534975 0 51.2534975"></polygon>
    </defs>
    <g id="icon/facebook" stroke="none" stroke-width="1" fill="none" fill-rule="evenodd">
        <g id="Group-25-Copy-2">
            <mask id="mask-2" fill="white">
                <use xlink:href="#path-1"></use>
            </mask>
            <g id="Clip-2"></g>
            <path d="M25.8937777,0 C11.5929861,0 0,11.4735145 0,25.6267636 C0,39.7800868 11.5929861,51.2535272 25.8937777,51.2535272 C40.1944944,51.2535272 51.7875554,39.7800868 51.7875554,25.6267636 C51.7875554,11.4735145 40.1944944,0 25.8937777,0 Z" id="Fill-1" fill="#3A579D" mask="url(#mask-2)"></path>
        </g>
        <g id="facebook-logo-(3)" transform="translate(21.000000, 16.000000)" fill="#FFFFFF" fill-rule="nonzero">
            <path d="M9.62342935,0.00416133496 L7.22488407,0 C4.5302007,0 2.78877793,1.93189975 2.78877793,4.92202699 L2.78877793,7.191411 L0.377147915,7.191411 C0.16875445,7.191411 0,7.37409361 0,7.5994299 L0,10.8875087 C0,11.112845 0.168946872,11.2953195 0.377147915,11.2953195 L2.78877793,11.2953195 L2.78877793,19.5921892 C2.78877793,19.8175255 2.95753238,20 3.16592584,20 L6.31241702,20 C6.52081048,20 6.68956493,19.8173174 6.68956493,19.5921892 L6.68956493,11.2953195 L9.50932287,11.2953195 C9.71771633,11.2953195 9.88647078,11.112845 9.88647078,10.8875087 L9.88762532,7.5994299 C9.88762532,7.49123519 9.84779388,7.38761795 9.77717485,7.31104938 C9.70655583,7.23448082 9.61034463,7.191411 9.51028498,7.191411 L6.68956493,7.191411 L6.68956493,5.26762585 C6.68956493,4.34297723 6.89334026,3.87357864 8.00727357,3.87357864 L9.62304451,3.87295444 C9.83124555,3.87295444 10,3.69027184 10,3.46514362 L10,0.411972161 C10,0.187052006 9.83143797,0.00457746845 9.62342935,0.00416133496 Z" id="Shape"></path>
        </g>
    </g>
</svg>