<?xml version="1.0" encoding="UTF-8"?>
<svg width="18px" height="8px" viewBox="0 0 18 8" version="1.1" xmlns="http://www.w3.org/2000/svg" xmlns:xlink="http://www.w3.org/1999/xlink">
    <!-- Generator: Sketch 55 (78076) - https://sketchapp.com -->
    <title>Fill 4</title>
    <desc>Created with Sketch.</desc>
    <g id="Symbols" stroke="none" stroke-width="1" fill="none" fill-rule="evenodd" opacity="0.39969308">
        <g id="header" transform="translate(-667.000000, -13.000000)" fill="#3F3F3F">
            <g id="Group-26">
                <g id="Group-23">
                    <g id="Fill-4" transform="translate(675.842406, 17.353553) rotate(-45.000000) translate(-675.842406, -17.353553) translate(665.342406, 8.353553)">
                        <g id="Group-15" transform="translate(0.646447, 0.945436)">
                            <g id="Group-22" transform="translate(9.928002, 8.133798) rotate(12.000000) translate(-9.928002, -8.133798) translate(1.928002, 1.633798)">
                                <path d="M8.28802984,5.89221283 C8.31700553,4.97952254 8.14732585,4.07015298 7.76941409,3.27011212 C7.38634564,2.45908731 6.91414011,1.78523425 6.36556644,1.26720013 C5.90342873,0.830396217 5.38604077,0.50266556 4.8283815,0.292693151 C3.87660373,-0.0656904128 3.01862863,0.00889832612 2.66158918,0.109542035 C0.986155824,0.581085912 -0.0198899743,2.20364642 0.321188281,3.88317025 C0.46189227,4.57541506 0.853309649,5.16931512 1.42324675,5.5552863 C1.99342941,5.94151292 2.67386702,6.07332041 3.33908012,5.92695279 C3.89600271,5.80485204 4.37361049,5.4640939 4.68423972,4.96777226 C4.99462339,4.47170606 5.10094944,3.87959408 4.98332778,3.30025415 C4.92979642,3.03791636 4.68202971,2.86958081 4.42935187,2.92526693 C4.17667402,2.9806976 4.01534327,3.2386929 4.06887463,3.50128613 C4.13468383,3.82671782 4.07501355,4.15879097 3.90091385,4.43747698 C3.72656859,4.71590754 3.45866623,4.90723277 3.14607255,4.97594637 C2.72469726,5.06841597 2.29399081,4.9848868 1.93351357,4.74068531 C1.57254522,4.49622838 1.32477851,4.1202194 1.23588699,3.68213827 C1.11998423,3.11224966 1.22606472,2.53239884 1.53423838,2.04961557 C1.84290315,1.56581053 2.3303332,1.20998137 2.9059181,1.04803185 C3.09376898,0.995155589 3.74866869,0.92056685 4.51038558,1.20691608 C5.51348469,1.58420227 6.32775071,2.42255926 6.93059241,3.69899737 C7.24858833,4.37208411 7.39248456,5.15807572 7.34828435,5.97293215 C4.55851469,6.1144464 9.16540393,5.86232624 8.28802984,5.89221283 Z" id="Fill-1"></path>
                                <path d="M15.5261251,12.114435 C15.5551008,11.2017448 15.3854211,10.2923752 15.0075093,9.49233435 C14.6244409,8.68130953 14.1522353,8.00745647 13.6036617,7.48942236 C13.141524,7.05261844 12.624136,6.72488778 12.0664767,6.51491537 C11.114699,6.15653181 10.2567239,6.23112055 9.89968442,6.33176426 C8.22425106,6.80330813 7.21820526,8.42586865 7.55928352,10.1053925 C7.69998751,10.7976373 8.09140489,11.3915373 8.66134199,11.7775085 C9.23152464,12.1637351 9.91196226,12.2955426 10.5771754,12.149175 C11.134098,12.0270743 11.6117057,11.6863161 11.922335,11.1899945 C12.2327186,10.6939283 12.3390447,10.1018163 12.221423,9.52247637 C12.1678917,9.26013858 11.9201249,9.09180304 11.6674471,9.14748915 C11.4147693,9.20291982 11.2534385,9.46091512 11.3069699,9.72350835 C11.3727791,10.04894 11.3131088,10.3810132 11.1390091,10.6596992 C10.9646638,10.9381298 10.6967615,11.129455 10.3841678,11.1981686 C9.96279249,11.2906382 9.53208604,11.207109 9.17160881,10.9629075 C8.81064046,10.7184506 8.56287375,10.3424416 8.47398223,9.9043605 C8.35807946,9.33447188 8.46415996,8.75462107 8.77233362,8.27183779 C9.08099839,7.78803275 9.56842844,7.4322036 10.1440133,7.27025407 C10.3318642,7.21737781 10.9867639,7.14278907 11.7484808,7.42913831 C12.7515799,7.8064245 13.5658459,8.64478149 14.1686876,9.9212196 C14.4866836,10.5943063 14.6305798,11.3802979 14.5863796,12.1951544 C11.7966099,12.3366686 16.4034992,12.0845485 15.5261251,12.114435 Z" id="Fill-1" transform="translate(11.566107, 9.243651) scale(-1, -1) translate(-11.566107, -9.243651) "></path>
                            </g>
                        </g>
                    </g>
                </g>
            </g>
        </g>
    </g>
</svg>