<?xml version="1.0" encoding="UTF-8"?>
<svg width="49px" height="39px" viewBox="0 0 49 39" version="1.1" xmlns="http://www.w3.org/2000/svg" xmlns:xlink="http://www.w3.org/1999/xlink">
    <!-- Generator: Sketch 55 (78076) - https://sketchapp.com -->
    <title>Group 5</title>
    <desc>Created with Sketch.</desc>
    <g id="Desktop" stroke="none" stroke-width="1" fill="none" fill-rule="evenodd">
        <g id="d-pdp-voucher" transform="translate(-442.000000, -5415.000000)" fill="#3F3F3F">
            <g id="content" transform="translate(408.000000, 234.000000)">
                <g id="miomente-info" transform="translate(34.000000, 5181.000000)">
                    <g id="Group-5" transform="translate(24.500000, 19.500000) rotate(-90.000000) translate(-24.500000, -19.500000) translate(5.000000, -5.000000)">
                        <g id="Fill-4" transform="translate(0.500000, 0.500000)">
                            <g id="Group-15">
                                <path d="M9.43952035,7.88461734 C9.8633852,7.16947474 10.4445785,6.58976465 11.1384375,6.1758122 C11.2617646,6.98693525 11.1879989,7.81366248 10.9125299,8.60093763 C10.5134458,9.74092617 9.74553291,10.6391971 8.79493458,11.2077193 C8.62752093,10.0957005 8.8254782,8.92008731 9.43952035,7.88461734 L9.43952035,7.88461734 Z M27.7887479,9.04285984 L16.1300152,21.3946004 C16.3366169,18.4934002 17.6727565,15.5630526 19.9076279,13.1956332 C22.1390415,10.8317468 24.958564,9.35906534 27.7887479,9.04285984 L27.7887479,9.04285984 Z M24.7133505,17.9310608 C22.4819369,20.2958304 19.6621263,21.7685119 16.8310779,22.0847174 L28.4903868,9.73238803 C28.2837851,12.6344715 26.9473574,15.5645247 24.7133505,17.9310608 L24.7133505,17.9310608 Z M25.421905,30.1885874 C25.8535498,31.8158386 25.6285067,33.2923476 24.7882688,34.3454827 C24.02439,35.303815 22.7963057,35.8311185 21.3304998,35.8311185 C19.5261207,35.8311185 17.5419376,35.0408992 15.887107,33.6624317 C13.8965846,32.0048553 12.7290113,29.810554 12.5987686,27.8588536 C12.6019383,27.8149853 12.5984805,27.7720002 12.5912768,27.7298983 C12.5448851,26.6620423 12.8137266,25.6725016 13.4358369,24.8922925 C14.1997157,23.934549 15.4278,23.4066566 16.893894,23.4066566 C18.697985,23.4066566 20.68188,24.1971704 22.3372869,25.5756379 C23.877723,26.8578306 24.9732595,28.4962697 25.421905,30.1885874 L25.421905,30.1885874 Z M12.4786112,31.3568402 C12.3034175,31.6271164 12.1112232,31.8959205 11.9080793,32.15442 C10.6632824,33.7375084 9.06781018,34.8680755 7.41528474,35.3382619 C5.82528729,35.791372 4.37907541,35.5705582 3.34260915,34.7196886 C1.14779027,32.9187305 1.41951328,28.836912 3.94829502,25.620684 C5.34292852,23.8474012 7.19168235,22.6376354 9.02228289,22.3005262 C10.3837794,23.0247958 11.8599587,23.4219664 13.2770677,23.4219664 C13.324612,23.4219664 13.37158,23.419611 13.4191243,23.4187278 C13.1208918,23.6483742 12.8503213,23.9115844 12.6140404,24.2077694 C11.835178,25.1843557 11.4948759,26.4138475 11.5447254,27.7263653 C11.2724261,28.7267994 10.6886394,29.7487262 9.89306439,30.6087227 C7.93769601,32.723531 5.5397332,33.0627011 4.81129653,32.3593353 C4.59864374,32.1550088 4.26352829,32.1632525 4.06153695,32.3811222 C3.8606982,32.5984031 3.87020707,32.9414007 4.08285986,33.1471992 C4.53352242,33.5808777 5.16139565,33.7860874 5.87744198,33.7860874 C7.36601154,33.7860874 9.2326305,32.9007709 10.6641469,31.3524239 C11.143336,30.8342473 11.5550987,30.2613088 11.8858919,29.6651113 C12.0504241,30.1956535 12.2720095,30.7264901 12.5480547,31.2476109 L12.4786112,31.3568402 Z M5.43686458,17.1131661 L13.2107937,22.4156439 C11.6602725,22.4003341 10.0241715,21.8597817 8.59438398,20.8849619 C7.13808693,19.891005 6.03563491,18.5605276 5.43686458,17.1131661 L5.43686458,17.1131661 Z M13.7594264,21.5833227 L5.98664985,16.2814338 C7.52593335,16.2973324 9.17384843,16.8375904 10.6021952,17.8121157 C12.0584922,18.8057783 13.1606561,20.1362556 13.7594264,21.5833227 L13.7594264,21.5833227 Z M32.1933693,35.3797749 C32.9710792,35.4139275 33.7110418,35.6538786 34.3677297,36.0748971 C33.7626201,36.5768807 33.0543538,36.9101625 32.2858646,37.0435341 C31.2015659,37.2319619 30.1146738,37.0058485 29.1828051,36.4078844 C30.0414844,35.6948028 31.0955276,35.3314903 32.1933693,35.3797749 L32.1933693,35.3797749 Z M15.3062018,39.515472 C15.3695942,41.0128847 14.8520814,43.0152251 13.688254,45.7595002 C12.5247147,43.0152251 12.007202,41.0128847 12.0705944,39.515472 C12.1253424,38.2215026 12.6016501,37.2175354 13.688254,36.1373138 C14.7751461,37.2175354 15.2514538,38.2215026 15.3062018,39.515472 L15.3062018,39.515472 Z M4.33210738,12.6577305 C4.9879309,12.8973872 5.66594177,13.0166267 6.34222376,13.0166267 C6.92745117,13.0166267 7.51094969,12.9250626 8.07687121,12.7472338 C8.55461963,13.9567051 9.39716268,14.9727434 10.5082591,15.6607995 C11.4510775,16.2446315 12.5088666,16.5440551 13.5836565,16.5440551 C14.059676,16.5440551 14.5391533,16.4851714 15.0137321,16.3665208 C15.7450503,16.183098 16.4201797,15.8630651 17.0183737,15.4335084 C15.7205578,17.6763888 15.0546491,20.1524486 15.1344659,22.566975 C15.120923,22.5710968 15.1068038,22.5737466 15.093549,22.5772796 C14.6431746,20.4215472 13.21137,18.385643 11.1476582,16.9777336 C9.53893121,15.8798469 7.68268555,15.2757001 5.92152853,15.2757001 C5.42101647,15.2757001 4.93058956,15.3242792 4.46379075,15.4202596 C4.19869512,15.474727 4.02695926,15.7379372 4.0788258,16.0090967 C4.48309662,18.1050622 5.82038879,20.095037 7.76653645,21.5173729 C6.05724597,22.1009104 4.407602,23.3068487 3.12131193,24.9423437 C0.226871124,28.6240474 0.028337553,33.3892113 2.67842935,35.5646698 C3.55583824,36.2848175 4.64474733,36.6525462 5.84747465,36.6525462 C6.44134647,36.6525462 7.0625923,36.5627486 7.6993981,36.3819756 C9.56400003,35.8517278 11.3522429,34.5910277 12.7350624,32.8324658 C12.8831701,32.6437436 13.0234979,32.4497217 13.1589272,32.253639 L13.174199,32.2760148 L13.174199,35.1336411 C12.142055,36.1075775 11.1306575,37.3933033 11.0430607,39.4639488 C10.9623795,41.3688367 11.63578,43.7883681 13.2272182,47.3084361 C13.2292352,47.3134412 13.232693,47.317563 13.2349981,47.3222737 C13.2436426,47.3405277 13.254304,47.3573095 13.2646773,47.3743858 C13.2736099,47.3885179 13.281678,47.40265 13.2911869,47.41531 C13.3018483,47.4294421 13.3142387,47.4421021 13.3260527,47.4553509 C13.3381549,47.4683053 13.349969,47.4818486 13.3629356,47.4933309 C13.3747496,47.50393 13.3877163,47.5130569 13.4003947,47.5221839 C13.4162429,47.5339607 13.4315147,47.5451486 13.4485154,47.5548644 C13.4531257,47.5575141 13.4565835,47.5610472 13.4611939,47.5636969 C13.4704146,47.5684076 13.4802116,47.570763 13.4900086,47.5751793 C13.5067211,47.5828341 13.5237218,47.5901946 13.5412988,47.596083 C13.5571469,47.6010881 13.5729951,47.6049155 13.5888432,47.6084486 C13.6055557,47.6119816 13.6219801,47.6149258 13.6386927,47.6169867 C13.6554052,47.6187532 13.6718296,47.6190476 13.688254,47.6190476 C13.7049666,47.6190476 13.721391,47.6187532 13.7381035,47.6169867 C13.7551042,47.6149258 13.7712405,47.6119816 13.7876649,47.6084486 C13.8038011,47.6049155 13.8193611,47.6010881 13.8354973,47.596083 C13.8527862,47.5901946 13.8697869,47.5831286 13.8867876,47.5754737 C13.8962965,47.5710574 13.9060935,47.5684076 13.9156023,47.5636969 C13.9202127,47.5610472 13.9239586,47.5572197 13.928569,47.55457 C13.9449934,47.5451486 13.9602652,47.5339607 13.9761133,47.5224783 C13.9887918,47.5130569 14.0017584,47.50393 14.0135725,47.4933309 C14.0268272,47.4815542 14.0383531,47.4683053 14.0504553,47.4553509 C14.0625575,47.4421021 14.0746597,47.4294421 14.0853212,47.41531 C14.0951182,47.4023556 14.1034744,47.3882235 14.1121189,47.3743858 C14.1224922,47.3573095 14.1328655,47.3405277 14.1415099,47.3222737 C14.1441032,47.317563 14.147561,47.3134412 14.1498662,47.3084361 C15.7407281,43.7883681 16.4144167,41.3688367 16.3337355,39.4639488 C16.260546,37.7354176 15.5439234,36.553916 14.708584,35.6438684 C14.5434756,35.4639786 14.3731804,35.2973378 14.2025972,35.1365852 L14.2025972,33.5455475 C14.5158134,33.8788293 14.8535222,34.1994511 15.2174524,34.5024077 C17.0581381,36.0348562 19.286382,36.9145787 21.3304998,36.9145787 C23.1207597,36.9145787 24.6413136,36.245071 25.6103534,35.0297113 C25.8379899,34.7444198 26.027879,34.4358691 26.1846312,34.1090646 C26.4722023,35.0199955 26.954273,35.8393623 27.5997232,36.5094588 L28.4137396,37.2113526 C29.6058055,38.062811 31.0312708,38.3966816 32.4524138,38.1496645 C33.6519715,37.9415106 34.7354058,37.3411912 35.5851526,36.4134784 C35.5917799,36.4064124 35.5961022,36.3981686 35.6024414,36.3905138 C35.6082044,36.3834477 35.615408,36.3778538 35.6208828,36.3704933 C35.6260695,36.3634272 35.6292391,36.3557724 35.6338495,36.3487063 C35.6447991,36.3325133 35.6548842,36.3157314 35.6641049,36.2989496 C35.6721731,36.2836398 35.6796649,36.2683301 35.6865804,36.2530203 C35.6897501,36.2453654 35.6940723,36.2385938 35.6969538,36.2309389 C35.7021404,36.2176901 35.7050219,36.2041468 35.7090559,36.1906036 C35.7119374,36.1814766 35.715107,36.172644 35.7171241,36.1638115 C35.7249041,36.1326031 35.7303789,36.1013948 35.7329722,36.0693031 C35.7332603,36.0631204 35.7329722,36.0569376 35.7332603,36.0507548 C35.7347011,36.0245515 35.7341248,35.9980539 35.7321077,35.9718506 C35.7312433,35.961546 35.7298026,35.9515357 35.7283618,35.9415255 C35.7254803,35.917972 35.72087,35.894713 35.715107,35.8714539 C35.7128019,35.8623269 35.7107848,35.8537888 35.7081915,35.8452506 C35.6986826,35.8143367 35.6874449,35.784306 35.6727494,35.7551586 C35.6710205,35.7516255 35.6687153,35.7489758 35.6669864,35.7454428 C35.6540198,35.7204172 35.6384598,35.6962749 35.621171,35.6730158 C35.6151199,35.6641832 35.6079162,35.6565284 35.6010007,35.6482846 C35.593797,35.6394521 35.5871696,35.6297363 35.5791015,35.6211981 C35.5724741,35.6144265 35.5649822,35.6097158 35.5583548,35.6029442 C35.5514393,35.5967614 35.5462527,35.5891065 35.539049,35.5829237 C34.5921966,34.770623 33.4499802,34.313391 32.235727,34.2598069 C30.7972951,34.1968013 29.4193741,34.7102672 28.3301769,35.708346 C27.6161476,34.9684723 27.1447384,34.0063125 26.983664,32.9358067 C26.5767998,30.2336335 28.2930059,27.6798472 30.8096854,27.2429301 C34.0029351,26.6882455 34.8918699,29.0041417 34.8996499,29.0276952 C35.0886746,29.5779634 35.0912679,30.1623842 34.9082943,30.6734948 C34.7264733,31.1819556 34.3688823,31.5803038 33.9015072,31.7978791 C33.5462214,31.9627535 33.1526121,31.9698195 32.7927159,31.8170163 C32.433108,31.6642131 32.1501472,31.3703834 31.9962765,30.9891114 C31.8844753,30.7114747 31.8798649,30.4038074 31.9833098,30.1226377 C31.9841743,30.1196935 31.9853269,30.1170437 31.9864795,30.1140996 C32.0907888,29.8370517 32.2890343,29.619182 32.5449092,29.5002369 C32.8091403,29.37717 32.9304504,29.0471268 32.8160559,28.7633073 C32.7013732,28.4791935 32.3942081,28.348766 32.1296887,28.471833 C31.6156337,28.7109008 31.2179903,29.1504677 31.0125412,29.7104517 C30.8065158,30.2701414 30.8160247,30.8822375 31.0384745,31.4342722 C31.3032819,32.0902367 31.7896748,32.5963422 32.4089036,32.8589635 C33.0278442,33.1218792 33.7052788,33.1103969 34.3161513,32.8259886 C35.050351,32.4847575 35.5854407,31.8670675 35.8658081,31.1230718 C36.1481926,30.3728934 36.1718207,29.4940541 35.8793511,28.6405348 C35.8453497,28.5407269 35.5162853,27.6436337 34.5262108,26.9058208 C33.8090119,26.37204 32.5535536,25.80499 30.6431362,26.1365052 C29.1485155,26.3961824 27.8380211,27.264717 26.9519678,28.5828288 C26.7228906,28.923471 26.5309844,29.2847226 26.3742322,29.6592229 C25.8316506,27.8385387 24.6441951,26.0988196 23.0069415,24.7353674 C21.8053668,23.7349333 20.4389717,23.0153744 19.0662374,22.6346912 C21.3740101,21.9404523 23.5829482,20.5616904 25.4138369,18.6220611 C28.003994,15.8786692 29.4695118,12.4115966 29.4922754,9.02725566 C30.3754473,8.99221985 31.2254821,9.16416027 31.9573766,9.5315946 C33.3969611,10.2543921 34.3426609,11.2306839 34.7682546,12.4333836 C35.091556,13.3466699 35.007417,14.1315897 34.9477705,14.3568199 C34.765085,15.0472313 34.3636957,15.6313577 33.8179444,16.0017362 C33.2733458,16.3712314 32.6192512,16.4984203 31.9763943,16.3594547 C30.9560643,16.1389352 30.3011052,15.111709 30.5169276,14.069173 C30.6768495,13.2957355 31.4228631,12.7993459 32.1801145,12.9627481 C32.4763301,13.0269314 32.767359,12.833204 32.8301751,12.5302473 C32.8927031,12.2275851 32.7031021,11.9302224 32.4068865,11.8663335 C31.0580685,11.5748592 29.7288444,12.4592925 29.4438667,13.8374656 C29.1029883,15.4844428 30.1374375,17.1075722 31.7496223,17.4558693 C31.9977172,17.5094535 32.2446595,17.5353623 32.4875678,17.5353623 C34.1011934,17.5350679 35.5442356,16.3953738 36.0064241,14.6497663 C36.1199542,14.2216818 36.2038051,13.1932778 35.7995342,12.0521116 C35.5629652,11.3834871 35.1932721,10.7628529 34.7002518,10.2087572 C34.116177,9.55132064 33.3560441,8.98485939 32.4411761,8.5258609 C31.5386984,8.07275078 30.5126054,7.86930758 29.4830547,7.90375455 C29.5170561,6.85179714 29.3179462,5.80366718 28.8744874,4.88154835 C28.4249774,3.94676952 27.8708699,3.17009344 27.2271486,2.57301266 C26.6848551,2.06955698 26.0777285,1.691818 25.4233457,1.44980597 C24.3064863,1.03673678 23.2996993,1.12270699 22.8807329,1.23870789 C20.9147031,1.78220449 19.7341631,3.65235099 20.1343999,5.58815282 C20.2995084,6.38602703 20.7588153,7.07055011 21.4276055,7.51541651 C22.0966838,7.96057732 22.8951403,8.11249729 23.6757317,7.94379547 C24.32925,7.80306341 24.8896967,7.41030909 25.2542032,6.83825389 C25.6184215,6.26649311 25.7431894,5.58403096 25.6051668,4.91628973 C25.5423506,4.6139219 25.2516099,4.41990009 24.9551062,4.48408333 C24.6586025,4.54797215 24.4692896,4.84533487 24.5321058,5.14799712 C24.6093293,5.52308632 24.5393095,5.90583041 24.3350129,6.22704103 C24.1304283,6.54795722 23.8160594,6.7684767 23.4492478,6.84767528 C22.9547868,6.95425479 22.4493762,6.85797993 22.0263758,6.57651582 C21.6027991,6.29475729 21.3120584,5.86137321 21.207749,5.35644543 C21.0717434,4.6995977 21.1962231,4.03126763 21.5578481,3.47481661 C21.9200494,2.91718792 22.4920221,2.50706291 23.1674396,2.32040156 C23.3878724,2.25945693 24.1563615,2.17348672 25.0501948,2.50352989 C26.227277,2.93838605 27.1827739,3.90466767 27.8901758,5.37587706 C28.2633267,6.15166988 28.4321811,7.0575957 28.3803145,7.9967908 C25.1066717,8.15989867 21.8059431,9.76830709 19.2397022,12.4719524 C19.7209083,11.2091914 19.6765336,10.1669498 19.5194933,9.45710671 C19.2405666,8.19493447 18.5565046,7.53102069 18.4792811,7.45947699 C17.1661933,6.24146753 15.2687426,6.23528474 14.0660153,7.44563932 C13.0367527,8.48052045 13.0234979,10.1781377 14.0366242,11.2295063 C14.8895406,12.1148228 16.2884963,12.1260107 17.1543793,11.2545318 C17.3702017,11.0375454 17.3730832,10.682771 17.1607185,10.4622516 C16.9483539,10.2417321 16.6011363,10.2390823 16.3850257,10.4560688 C15.9499231,10.8941635 15.2468434,10.8882752 14.8183682,10.4434088 C14.229683,9.83219591 14.2371748,8.84589384 14.8353689,8.24410237 C15.2168761,7.86047503 15.7194052,7.65408764 16.2521897,7.66350903 C16.7881439,7.672636 17.3171826,7.89492199 17.7416237,8.2891484 C17.7600652,8.30593026 19.5108489,10.0591926 17.7494037,13.0295811 C17.0768676,14.1633869 16.0127392,14.9618499 14.7520943,15.277761 C13.4917375,15.5939665 12.1864297,15.3893457 11.076774,14.7021728 C10.1466341,14.1262902 9.47294545,13.2801313 9.0940316,12.3212102 C10.4275778,11.6113671 11.4358057,10.4331041 11.9449621,8.97838218 C12.3751662,7.74977366 12.4106084,6.44137771 12.0466782,5.19451524 C12.0437967,5.18509385 12.0388982,5.17714455 12.0360167,5.16772316 C12.032559,5.15859618 12.0314064,5.14946921 12.0276605,5.14034223 C12.0242027,5.13121526 12.0187279,5.12414922 12.014982,5.1159055 C12.0066257,5.09794597 11.9976931,5.08116411 11.9881843,5.06467667 C11.9789635,5.04907249 11.9688784,5.03405715 11.9585051,5.02021947 C11.9478436,5.00520413 11.9363177,4.99107204 11.9242155,4.97752879 C11.9121133,4.96398554 11.899723,4.95132554 11.8861801,4.93925438 C11.8732134,4.92718322 11.8599587,4.91628973 11.8461276,4.90569067 C11.8317202,4.8950916 11.8170247,4.88478695 11.8017529,4.87536556 C11.7867692,4.86623858 11.7717855,4.85828928 11.7559374,4.85033998 C11.7398012,4.84297952 11.7242412,4.83591348 11.7078168,4.82973069 C11.6908161,4.8235479 11.6743917,4.81854278 11.6568147,4.81383209 C11.6401022,4.80941581 11.6233896,4.80558837 11.6061008,4.8029386 C11.5885238,4.79999441 11.5709468,4.79852232 11.5530817,4.79734465 C11.5349284,4.79616697 11.5173514,4.79587256 11.4989099,4.79675581 C11.4816211,4.79734465 11.4643323,4.79911116 11.4467553,4.80146651 C11.4280257,4.80411627 11.4095842,4.80794371 11.3905665,4.81235999 C11.3819221,4.81471534 11.3732777,4.81500976 11.3643451,4.81765953 C11.3551244,4.82060371 11.3470563,4.82531441 11.3384118,4.82855301 C11.3294793,4.83179162 11.3199704,4.83326371 11.3110378,4.83679673 C10.1348201,5.33495288 9.16318698,6.18788336 8.50131236,7.30372959 C7.71755138,8.62537436 7.458795,10.167833 7.7607735,11.673195 C6.79317447,11.9770349 5.72558829,11.9767405 4.70180051,11.6025345 C3.47976732,11.1559016 2.50150684,10.2499758 1.94653491,9.05139798 C1.39156298,7.85282014 1.32672982,6.50497212 1.76384945,5.25663755 C2.90865914,1.98653095 5.34436926,2.26917274 5.36886179,2.27270576 C5.9359359,2.36103132 6.438465,2.6404345 6.78337746,3.05939207 C7.12627288,3.47540545 7.286771,4.00447555 7.2363452,4.54914983 C7.19773344,4.96251344 7.00381023,5.33613056 6.69030584,5.6005184 C6.37680145,5.86520065 5.98117505,5.98915085 5.57661607,5.94969877 C4.96833688,5.89052065 4.52084394,5.33671939 4.57876157,4.71520188 C4.60728816,4.40694568 4.38627909,4.13372528 4.08487689,4.10428343 C3.7834747,4.075136 3.5154976,4.30066059 3.486971,4.60891679 C3.37142389,5.84547461 4.26208756,6.94718875 5.47230671,7.06525058 C6.16847087,7.13296684 6.84936322,6.91980782 7.38877518,6.46463678 C7.927899,6.00946573 8.26157371,5.3670445 8.32813576,4.65543492 C8.48805758,2.93838605 7.28705914,1.43773481 5.53368211,1.16510325 C5.43110163,1.14891023 4.49548696,1.02496003 3.36047429,1.59995942 C2.82163862,1.8728854 2.33668651,2.25798483 1.91916091,2.74406983 C1.42556438,3.31848038 1.02619206,4.03715601 0.731129104,4.879193 C0.195463055,6.40928609 0.274703595,8.06156288 0.955019647,9.53041692 C1.63504755,10.9995654 2.83460525,12.1104065 4.33210738,12.6577305 L4.33210738,12.6577305 Z" id="Fill-1"></path>
                                <path d="M33.4471015,2.65228857 C34.161497,1.9364319 35.3082267,1.72091992 36.3128989,1.69140713 C36.2831181,2.69895995 36.0684914,3.84824279 35.3540959,4.56409946 C34.6794081,5.24083453 33.330717,5.77927131 32.1144989,5.90041101 C32.2353334,4.68146427 32.7720714,3.32902364 33.4471015,2.65228857 M30.9208731,6.97762773 C30.9373038,6.99856122 30.9537346,7.01880837 30.9722192,7.03733965 C30.9910461,7.05724362 31.0119268,7.07474539 31.0331499,7.09190399 C31.0399961,7.09705157 31.0461576,7.10288549 31.0530037,7.1076899 C31.1618575,7.18867848 31.2946727,7.23809524 31.4394688,7.23809524 C31.4476841,7.23809524 31.4565841,7.23809524 31.4647995,7.23775207 C31.4805456,7.23706572 31.4949226,7.23329083 31.5099841,7.23157497 C31.5472956,7.23226132 31.5842648,7.233634 31.6215763,7.233634 C33.2971709,7.233634 35.2626998,6.50370728 36.2755874,5.48791833 C37.2244634,4.53664571 37.673913,3.06340856 37.6136669,1.11041703 C37.6153784,1.09634698 37.6191438,1.08262011 37.6194861,1.06820688 C37.6256477,0.914465853 37.5760131,0.772735841 37.4914632,0.65777324 C37.4863285,0.649880285 37.480167,0.642673675 37.4746901,0.635123892 C37.4586017,0.614876747 37.4418286,0.59600229 37.423344,0.577814178 C37.4052017,0.559626065 37.3867171,0.543153811 37.3668633,0.527367902 C37.3593325,0.521190807 37.3514594,0.515013712 37.3435864,0.509522961 C37.2289134,0.425102663 37.0878828,0.37499956 36.9345291,0.381519826 C36.9201522,0.381862998 36.9064599,0.385981062 36.8924253,0.387010577 C34.9440117,0.326955488 33.4748284,0.777197076 32.5259524,1.72881287 C31.4914995,2.76587848 30.7562232,4.79779955 30.7877155,6.49958922 C30.7856617,6.51709099 30.7812117,6.53390641 30.7805271,6.55140818 C30.7743655,6.70274701 30.8226309,6.84173164 30.9041,6.95566473 C30.9095769,6.96355768 30.9153962,6.97042112 30.9208731,6.97762773" id="Fill-3"></path>
                            </g>
                        </g>
                    </g>
                </g>
            </g>
        </g>
    </g>
</svg>