<?xml version="1.0" encoding="UTF-8"?>
<svg width="19px" height="19px" viewBox="0 0 19 19" version="1.1" xmlns="http://www.w3.org/2000/svg" xmlns:xlink="http://www.w3.org/1999/xlink">
    <!-- Generator: Sketch 55 (78076) - https://sketchapp.com -->
    <title>Group 8</title>
    <desc>Created with Sketch.</desc>
    <g id="Desktop" stroke="none" stroke-width="1" fill="none" fill-rule="evenodd">
        <g id="d-pdp-voucher" transform="translate(-1541.000000, -391.000000)" fill="#960067">
            <g id="Sticky-box" transform="translate(1111.000000, 282.000000)">
                <g id="Group-8" transform="translate(430.000000, 109.000000)">
                    <g id="Group-4">
                        <path d="M9.5,0.112946739 C4.32415217,0.112946739 0.112967598,4.32413152 0.112967598,9.49997935 C0.112967598,14.6758272 4.32415217,18.8870115 9.5,18.8870115 C14.6758478,18.8870115 18.8862065,14.6758272 18.8870326,9.49997935 C18.8870326,4.32413152 14.6758478,0.112946739 9.5,0.112946739 Z M9.5,17.6478815 C5.00732609,17.6478815 1.35209783,13.9926533 1.35209783,9.49997935 C1.35209783,5.00730543 5.00732609,1.35207717 9.5,1.35207717 C13.9926739,1.35207717 17.6479022,5.00730543 17.6479022,9.49997935 C17.6470947,13.9926533 13.9926739,17.6478815 9.5,17.6478815 Z" id="Fill-1"></path>
                        <path d="M9.5,3.98525 C8.97159348,3.98525 8.54161522,4.41522826 8.54161522,4.94363478 C8.54161522,5.19937065 8.64084272,5.43976196 8.82155543,5.62127391 C9.00306946,5.80198043 9.24428478,5.90121413 9.50002065,5.90121413 C10.0284272,5.90121413 10.4584054,5.47123587 10.4584054,4.94282935 C10.4584054,4.41522826 10.0284272,3.98525 9.50002065,3.98525 L9.5,3.98525 Z" id="Fill-2"></path>
                        <path d="M9.5,7.4736087 C9.05387174,7.4736087 8.69165326,7.83663261 8.69165326,8.28195543 L8.69165326,14.4073902 C8.69165326,14.8526924 9.05467717,15.215737 9.5,15.215737 C9.94532283,15.215737 10.3083467,14.8535185 10.3083467,14.4073902 L10.3083467,8.28278152 C10.3083467,7.83665326 9.94612826,7.47362935 9.5,7.47362935 L9.5,7.4736087 Z" id="Fill-3"></path>
                    </g>
                </g>
            </g>
        </g>
    </g>
</svg>