<?xml version="1.0" encoding="UTF-8"?>
<svg width="52px" height="53px" viewBox="0 0 52 53" version="1.1" xmlns="http://www.w3.org/2000/svg" xmlns:xlink="http://www.w3.org/1999/xlink">
    <!-- Generator: Sketch 55 (78076) - https://sketchapp.com -->
    <title>icon/mail</title>
    <desc>Created with Sketch.</desc>
    <defs>
        <polygon id="path-1" points="0 0 51.7875479 0 51.7875479 51.2534975 0 51.2534975"></polygon>
    </defs>
    <g id="icon/mail" stroke="none" stroke-width="1" fill="none" fill-rule="evenodd">
        <g id="Group-25" transform="translate(0.000000, 0.277778)">
            <mask id="mask-2" fill="white">
                <use xlink:href="#path-1"></use>
            </mask>
            <g id="Clip-2"></g>
            <path d="M25.8937777,0 C11.5929861,0 0,11.4735145 0,25.6267636 C0,39.7800868 11.5929861,51.2535272 25.8937777,51.2535272 C40.1944944,51.2535272 51.7875554,39.7800868 51.7875554,25.6267636 C51.7875554,11.4735145 40.1944944,0 25.8937777,0 Z" id="Fill-1" fill="#706E6F" mask="url(#mask-2)"></path>
            <path d="M14.9487104,32.8347013 L14.9487104,19.7828978 L25.2850173,26.6304003 C25.4236833,26.7222862 25.5834637,26.7681551 25.7431691,26.7681551 C25.9029495,26.7681551 26.0627299,26.7222862 26.2013959,26.6304003 L36.537553,19.7828978 L36.537553,32.8347013 L14.9487104,32.8347013 Z M34.6501381,19.0714487 L25.7431691,24.9721557 L16.8361253,19.0714487 L34.6501381,19.0714487 Z M38.1840993,18.242771 C38.1837998,18.2243938 38.1828265,18.2060907 38.181329,18.1877136 C38.1805803,18.1794142 38.1799064,18.1710407 38.1789331,18.1627413 C38.1769115,18.1456239 38.1741411,18.1284323 38.1709964,18.1113148 C38.169499,18.1031637 38.1684507,18.0949384 38.1667287,18.0869354 C38.1618619,18.0643345 38.1561715,18.0418076 38.1492831,18.0193548 C38.1491333,18.0190584 38.1490585,18.0188361 38.1489087,18.0185397 C38.1459138,18.0086101 38.1420203,17.999051 38.138651,17.9893437 C38.1338591,17.9757831 38.1291421,17.9621484 38.1237512,17.9489583 C38.1195583,17.9388805 38.114991,17.9291732 38.1104237,17.9193177 C38.1045087,17.906424 38.0984439,17.8937527 38.0919299,17.8813036 C38.0872877,17.8723373 38.0823461,17.8635192 38.0774044,17.8547753 C38.0696175,17.8413629 38.0615312,17.8281728 38.0531453,17.815205 C38.0483534,17.8080172 38.043861,17.8007552 38.0389193,17.7937156 C38.0277632,17.7777096 38.016008,17.7622965 38.0037287,17.7471798 C38.0008087,17.7435488 37.9981132,17.7396955 37.9951183,17.7361387 C37.9793948,17.717391 37.9629226,17.6993843 37.9456268,17.6821927 C37.9417333,17.6783395 37.9376153,17.6747826 37.933647,17.6710775 C37.9201697,17.6581838 37.9064679,17.6456607 37.8920921,17.6337303 C37.8854284,17.6281727 37.8786149,17.6228374 37.8718014,17.6175021 C37.859597,17.6080171 37.8471679,17.5987544 37.8345143,17.5898622 C37.8265028,17.5843787 37.8185662,17.5789693 37.810405,17.5737081 C37.7978262,17.5655569 37.7849479,17.5579244 37.7719199,17.5505143 C37.7635341,17.5457718 37.7553728,17.540807 37.7469121,17.5363609 C37.7290173,17.52695 37.710823,17.5183542 37.6922544,17.5102771 C37.6826705,17.5061274 37.672937,17.5023483 37.6632783,17.4985691 C37.647405,17.4924186 37.631457,17.4864164 37.6152094,17.4811552 C37.6054758,17.4780429 37.5955176,17.4754494 37.5856343,17.4726335 C37.5713334,17.468632 37.5570325,17.464927 37.5424322,17.4616665 C37.532474,17.4594435 37.5224409,17.4573686 37.5122581,17.4555161 C37.49631,17.452552 37.4801373,17.4502549 37.4638149,17.44818 C37.4551295,17.4471426 37.446519,17.4458829 37.4377588,17.4450678 C37.4124515,17.4426965 37.3869196,17.4412145 37.3611631,17.4412145 L14.1251003,17.4412145 C14.0993438,17.4412145 14.0738119,17.4426965 14.0485795,17.4450678 C14.0397444,17.4458829 14.0311339,17.4471426 14.0223737,17.4482541 C14.0061261,17.4502549 13.9900283,17.452552 13.9740053,17.4555161 C13.9638225,17.4573686 13.9537894,17.4594435 13.9437564,17.4616665 C13.9292309,17.464927 13.9150049,17.468632 13.9007789,17.4726335 C13.8908207,17.4754494 13.8807876,17.4780429 13.8709792,17.4812293 C13.8550311,17.4863423 13.8393825,17.4922704 13.8238088,17.4982727 C13.8133265,17.5023483 13.8028442,17.5064979 13.7925865,17.5110181 C13.7745419,17.5187988 13.7567969,17.5271723 13.7395011,17.5362868 C13.7308157,17.540807 13.7225796,17.5458459 13.7141189,17.5506625 C13.7011657,17.5579985 13.6884372,17.5655569 13.6760082,17.5735599 C13.6677721,17.5789693 13.6596109,17.5844528 13.6515994,17.5900845 C13.6390955,17.5988285 13.6268911,17.6078689 13.6149113,17.6172057 C13.6077983,17.6227633 13.6007602,17.6282468 13.5938718,17.6339526 C13.5799453,17.6455866 13.5666178,17.6577392 13.55344,17.6702624 C13.5491722,17.6744121 13.5446798,17.6781912 13.5404869,17.682415 C13.5233408,17.6994584 13.5068686,17.717391 13.4912949,17.7359905 C13.4879256,17.7399919 13.4849307,17.7442157 13.4816362,17.7482913 C13.4698811,17.7629634 13.4584254,17.7779319 13.4475687,17.7934192 C13.4424024,17.8008293 13.4376105,17.8083877 13.4326688,17.8160201 C13.4245825,17.8285433 13.4167208,17.8412147 13.4092334,17.8542565 C13.4039922,17.863371 13.3989008,17.8725596 13.394034,17.8818964 C13.3878195,17.8938268 13.3819794,17.9059794 13.3763639,17.9182803 C13.371572,17.9286545 13.3667052,17.9389546 13.3623625,17.949477 C13.357346,17.9617038 13.3530033,17.974227 13.3485857,17.986676 C13.3447672,17.9974949 13.3405743,18.0080914 13.337205,18.0190584 C13.3371301,18.0192066 13.3371301,18.0192807 13.3370552,18.0194289 C13.3302417,18.0417335 13.3244764,18.0641122 13.3196096,18.086639 C13.3178127,18.0950866 13.3166147,18.1038306 13.3151172,18.1123523 C13.3120474,18.1290992 13.3092771,18.1457721 13.3073304,18.162519 C13.306357,18.1709666 13.3056831,18.1794883 13.3049344,18.18801 C13.3034369,18.2062389 13.3024636,18.2244679 13.3021641,18.242771 C13.3020892,18.2472912 13.3014902,18.2517373 13.3014902,18.2563316 L13.3014902,33.6498184 C13.3014902,34.0999854 13.6702429,34.4649356 14.1251003,34.4649356 L37.3611631,34.4649356 C37.8160954,34.4649356 38.1847732,34.0999854 38.1847732,33.6498184 L38.1847732,18.2563316 C38.1847732,18.2517373 38.1841742,18.2473653 38.1840993,18.242771 L38.1840993,18.242771 Z" id="Fill-4" fill="#FEFEFE" mask="url(#mask-2)"></path>
        </g>
    </g>
</svg>