<?xml version="1.0" encoding="UTF-8"?>
<svg width="181px" height="15px" viewBox="0 0 181 15" version="1.1" xmlns="http://www.w3.org/2000/svg" xmlns:xlink="http://www.w3.org/1999/xlink">
    <!-- Generator: Sketch 55 (78076) - https://sketchapp.com -->
    <title>logo-miomente</title>
    <desc>Created with Sketch.</desc>
    <defs>
        <polygon id="path-1" points="0.00302122406 0.0434460347 14.9243168 0.0434460347 14.9243168 13.9509631 0.00302122406 13.9509631"></polygon>
    </defs>
    <g id="Symbols" stroke="none" stroke-width="1" fill="none" fill-rule="evenodd">
        <g id="header" transform="translate(-473.000000, -93.000000)">
            <g id="Group-26">
                <g id="logo-miomente" transform="translate(473.000000, 93.000000)">
                    <g id="Group-18">
                        <polygon id="Fill-1" fill="#4B0D44" points="15.3740321 0 9.70723838 7.95337233 4.05792654 0 0 0 0 14.0625 2.70334193 14.0625 2.70334193 2.49268754 2.77062086 2.40128183 9.70988716 12.0730816 16.6703437 2.49268754 16.7381524 14.0625 19.4414943 14.0625 19.4414943 0"></polygon>
                        <polygon id="Fill-2" fill="#4B0D44" points="28.3521792 14.0625 31.5924282 14.0625 31.5924282 0 28.3521792 0"></polygon>
                        <g id="Group-17" transform="translate(66.425105, 0.000000)">
                            <polygon id="Fill-6" fill="#4B0D44" points="19.5498117 14.4827383 16.8450211 14.4827383 16.7771761 3.03999934 9.81298962 12.5157018 2.87000471 2.95012933 2.80268972 3.03999934 2.80268972 14.4827383 0.0978991293 14.4827383 0.0978991293 0.575221245 4.15853027 0.575221245 9.81033943 8.44070838 15.4801699 0.575221245 19.5498117 0.575221245"></polygon>
                            <polygon id="Fill-8" fill="#4B0D44" points="43.7582441 14.4827383 28.8365775 14.4827383 28.8365775 0.575221245 43.2393356 0.575221245 43.2393356 3.01713301 31.541368 3.01713301 31.541368 6.0248536 39.6785315 6.0248536 39.6785315 8.46729714 31.541368 8.46729714 31.541368 12.0402948 43.7582441 12.0402948"></polygon>
                            <polygon id="Fill-10" fill="#4B0D44" points="67.9656163 14.4827383 63.9309571 14.4827383 54.5089784 2.88206211 54.5089784 14.4827383 51.8041878 14.4827383 51.8041878 0.575221245 55.8340766 0.575221245 65.2602957 12.181747 65.2602957 0.575221245 67.9656163 0.575221245"></polygon>
                            <polygon id="Fill-12" fill="#4B0D44" points="91.4068698 3.0173989 84.7803184 3.0173989 84.7803184 14.4830042 82.0760578 14.4830042 82.0760578 3.0173989 75.4489763 3.0173989 75.4489763 0.574955357 91.4068698 0.574955357"></polygon>
                            <g id="Group-16" transform="translate(98.887262, 0.531775)">
                                <mask id="mask-2" fill="white">
                                    <use xlink:href="#path-1"></use>
                                </mask>
                                <g id="Clip-15"></g>
                                <polygon id="Fill-14" fill="#4B0D44" mask="url(#mask-2)" points="14.9246878 13.9509631 0.00302122406 13.9509631 0.00302122406 0.0434460347 14.4057794 0.0434460347 14.4057794 2.4853578 2.70781182 2.4853578 2.70781182 5.49307839 10.8449753 5.49307839 10.8449753 7.93552193 2.70781182 7.93552193 2.70781182 11.5085196 14.9246878 11.5085196"></polygon>
                            </g>
                        </g>
                    </g>
                    <path d="M53.4799872,3.89076658 C52.3210767,2.94800805 50.8273116,2.47662879 48.9997384,2.47662879 C47.1569921,2.47662879 45.6527628,2.9517834 44.4865273,3.90263196 C43.3192454,4.85294118 42.7369125,6.04810873 42.7369125,7.48813462 C42.7369125,8.99018409 43.308258,10.2047677 44.4525187,11.1318855 C45.5967794,12.0595426 47.1125193,12.5222925 48.9997384,12.5222925 C50.8723076,12.5222925 52.3765369,12.0595426 53.5134727,11.1318855 C54.6504084,10.2047677 55.2186147,8.99018409 55.2186147,7.48813462 C55.2186147,6.03300733 54.639421,4.83298576 53.4799872,3.89076658 Z M55.1296689,13.1414497 C53.4977764,14.3803035 51.4583031,15 49.011249,15 C46.5636718,15 44.5163503,14.3803035 42.8698079,13.1414497 C40.9564282,11.7046599 40,9.82399684 40,7.49946066 C40,5.20674529 40.9637532,3.34118366 42.8923059,1.90385445 C44.5833212,0.634258593 46.6222713,0 49.011249,0 C51.3840072,0 53.4166788,0.634258593 55.1071709,1.90385445 C57.0352004,3.35628506 58,5.22130735 58,7.49946066 C58,9.80889544 57.0430486,11.6890191 55.1296689,13.1414497 Z" id="Fill-3" fill="#4B0D44"></path>
                </g>
            </g>
        </g>
    </g>
</svg>