<?xml version="1.0" encoding="UTF-8"?>
<svg width="21px" height="20px" viewBox="0 0 21 20" version="1.1" xmlns="http://www.w3.org/2000/svg" xmlns:xlink="http://www.w3.org/1999/xlink">
    <!-- Generator: Sketch 55 (78076) - https://sketchapp.com -->
    <title>Fill 1</title>
    <desc>Created with Sketch.</desc>
    <g id="Mobil" stroke="none" stroke-width="1" fill="none" fill-rule="evenodd">
        <g id="m-pdp" transform="translate(-13.000000, -1258.000000)" fill="#666459">
            <g id="content" transform="translate(-3.000000, 258.000000)">
                <g id="intro" transform="translate(15.000000, 279.000000)">
                    <path d="M13.4059271,740.375726 C13.4059271,740.720611 13.1282977,741 12.7855844,741 C12.442871,741 12.1652416,740.720611 12.1652416,740.375726 L12.1652416,739.127177 C12.1652416,736.368943 9.94340473,734.133873 7.2025417,734.133873 C4.46167868,734.133873 2.24068562,736.368943 2.24068562,739.127177 L2.24068562,740.375726 C2.24068562,740.720611 1.96305618,741 1.62034286,741 C1.27762953,741 1,740.720611 1,740.375726 L1,739.127177 C1,735.679172 3.7762942,732.885282 7.20258388,732.885282 C10.6288736,732.885282 13.4060115,735.680021 13.4060115,739.127177 L13.4059271,740.375726 Z M11.504456,732.29747 C11.2688379,732.047921 11.2787292,731.65246 11.5275243,731.41537 C12.6718283,730.322688 14.1867688,729.701724 15.797416,729.701724 C19.2228621,729.701724 22,732.496463 22,735.942771 L22,737.192147 C22,737.537033 21.7223706,737.816422 21.3796572,737.816422 C21.0369439,737.816422 20.7593145,737.537033 20.7593145,737.192147 L20.7593145,735.942771 C20.7593145,733.186234 18.5374776,730.950316 15.7974582,730.950316 C14.5073376,730.950316 13.2978653,731.44608 12.3810808,732.320731 C12.1330239,732.558623 11.7400529,732.547842 11.504456,732.29747 Z M7.15323328,730.837618 C5.26913248,730.837618 3.74170663,729.300554 3.74170663,727.404469 C3.74170663,725.508427 5.2690903,723.97132 7.15323328,723.97132 C9.03815658,723.97132 10.5656035,725.508385 10.5656035,727.404469 C10.5656035,729.300511 9.03821985,730.837618 7.15323328,730.837618 Z M7.17790864,729.613858 C8.37740529,729.613858 9.34955119,728.635572 9.34955119,727.429301 C9.34955119,726.222202 8.37742638,725.244744 7.17790864,725.244744 C5.9792345,725.244744 5.00710969,726.222202 5.00710969,727.429301 C5.00710969,728.635572 5.9792345,729.613858 7.17790864,729.613858 Z M15.8009978,727.866297 C13.9160745,727.866297 12.3886275,726.329233 12.3886275,724.433149 C12.3886275,722.537107 13.9160112,721 15.8009978,721 C17.6850986,721 19.2125244,722.537064 19.2125244,724.433149 C19.2125244,726.329191 17.6851408,727.866297 15.8009978,727.866297 Z M15.8256731,726.642538 C17.0243473,726.642538 17.9964721,725.665079 17.9964721,724.45798 C17.9964721,723.251709 17.0243473,722.273423 15.8256731,722.273423 C14.6261765,722.273423 13.6540306,723.251709 13.6540306,724.45798 C13.6540306,725.665079 14.6261554,726.642538 15.8256731,726.642538 Z" id="Fill-1"></path>
                </g>
            </g>
        </g>
    </g>
</svg>