<?xml version="1.0" encoding="UTF-8"?>
<svg width="14px" height="18px" viewBox="0 0 14 18" version="1.1" xmlns="http://www.w3.org/2000/svg" xmlns:xlink="http://www.w3.org/1999/xlink">
    <!-- Generator: Sketch 55 (78076) - https://sketchapp.com -->
    <title>Fill 1</title>
    <desc>Created with Sketch.</desc>
    <g id="Symbols" stroke="none" stroke-width="1" fill="none" fill-rule="evenodd">
        <g id="header" transform="translate(-1338.000000, -91.000000)" fill="#960067">
            <g id="Group-26">
                <path d="M1353.82575,104.763837 C1352.86284,106.665646 1350.60498,106.999237 1349.86718,106.999237 C1349.65026,106.999237 1346.276,107.14632 1341.42607,103.356812 C1337.52209,100.306884 1337.04552,97.0266781 1337.00415,96.4036848 C1336.96357,95.7965154 1337.1746,94.2739318 1339.71718,93.1429284 C1340.03225,93.0025308 1340.65721,92.9405333 1340.81805,93.0736414 C1340.88962,93.132597 1343.02428,96.0257019 1343.08038,96.1217026 C1343.13646,96.2171245 1343.1645,96.3119458 1343.1645,96.4043212 C1343.1645,96.5362109 1343.05013,96.7015344 1342.8214,96.8996662 C1342.59267,97.0977979 1342.34402,97.2795302 1342.07543,97.4448475 C1341.80685,97.6101647 1341.5582,97.7852065 1341.32947,97.9699729 C1341.10074,98.1547392 1340.98637,98.3066911 1340.98637,98.4258129 C1341.00187,98.734571 1341.30881,99.8395127 1343.64707,101.532221 C1345.9861,103.224292 1347.11283,103.701339 1347.22049,103.734169 C1347.32896,103.76699 1347.41898,103.783401 1347.49129,103.783401 C1347.6359,103.783401 1347.82037,103.689194 1348.04468,103.501389 C1348.26898,103.312982 1349.02381,102.460862 1349.26508,102.272455 C1349.50561,102.084048 1349.7063,101.990443 1349.86716,101.990443 C1349.97932,101.990443 1350.09368,102.01354 1350.20953,102.05973 C1350.32611,102.105923 1353.84263,103.800969 1353.90988,103.857604 C1354.09213,104.010767 1353.96374,104.49152 1353.82576,104.763807" id="Fill-1" transform="translate(1345.500000, 100.000000) rotate(23.000000) translate(-1345.500000, -100.000000) "></path>
            </g>
        </g>
    </g>
</svg>