<?xml version="1.0" encoding="UTF-8"?>
<svg width="19px" height="19px" viewBox="0 0 19 19" version="1.1" xmlns="http://www.w3.org/2000/svg" xmlns:xlink="http://www.w3.org/1999/xlink">
    <!-- Generator: Sketch 55 (78076) - https://sketchapp.com -->
    <title>Fill 1</title>
    <desc>Created with Sketch.</desc>
    <g id="Symbols" stroke="none" stroke-width="1" fill="none" fill-rule="evenodd">
        <g id="header" transform="translate(-1248.000000, -91.000000)" fill="#960067">
            <g id="Group-26">
                <g id="SEARCH" transform="translate(737.000000, 91.000000)">
                    <path d="M530,17.7754635 L524.257951,12.033414 C525.292064,10.7246852 525.862744,9.11984999 525.862744,7.43094979 C525.862744,5.44682983 525.081796,3.58891293 523.688073,2.17467013 C522.272965,0.780989677 520.415829,0 518.43095,0 C516.44683,0 514.588913,0.780947455 513.17467,2.17467013 C511.78099,3.56752724 511,5.44691427 511,7.43094979 C511,9.41506975 511.780947,11.2729866 513.17467,12.6872294 C514.56835,14.0809099 516.446914,14.8618996 518.43095,14.8618996 C520.11985,14.8618996 521.724727,14.2920646 523.033414,13.2571066 L528.775463,19 L530,17.7754635 Z M514.399207,11.4636213 C512.182526,9.24693973 512.182526,5.61601541 514.399207,3.39933389 C515.476219,2.32232223 516.911024,1.73188271 518.431878,1.73188271 C519.95172,1.73188271 521.387454,2.32316668 522.46455,3.39933389 C524.681231,5.61601541 524.681231,9.24693762 522.46455,11.4636213 C521.387538,12.5406329 519.952733,13.1310724 518.431878,13.1310724 C516.911024,13.1310724 515.475459,12.5397885 514.399207,11.4636213 Z" id="Fill-1"></path>
                </g>
            </g>
        </g>
    </g>
</svg>