<?xml version="1.0" encoding="UTF-8"?>
<svg width="20px" height="19px" viewBox="0 0 20 19" version="1.1" xmlns="http://www.w3.org/2000/svg" xmlns:xlink="http://www.w3.org/1999/xlink">
    <!-- Generator: Sketch 55 (78076) - https://sketchapp.com -->
    <title>Group</title>
    <desc>Created with Sketch.</desc>
    <g id="Symbols" stroke="none" stroke-width="1" fill="none" fill-rule="evenodd">
        <g id="header" transform="translate(-1561.000000, -90.000000)" fill="#960067">
            <g id="Group-26">
                <g id="Group" transform="translate(1561.000000, 90.000000)">
                    <g id="Group-4">
                        <path d="M19.3393464,3.50256831 L4.85885668,3.50256831 L4.29476136,0.519774493 L4.29476136,0.520601519 C4.23620003,0.214897938 3.95629534,-0.00488798327 3.63335044,8.26347113e-05 L0.661410921,8.26347113e-05 C0.296267998,8.26347113e-05 0,0.284317377 0,0.634629611 C0,0.984941845 0.296267998,1.26917659 0.661410921,1.26917659 L3.08658408,1.26917659 L3.64463852,4.23039581 C3.64636039,4.25187734 3.65066838,4.27335887 3.65497416,4.29401549 L4.94247666,11.0963591 C5.15519523,12.1993709 6.15850269,13 7.32796538,13 L15.7550019,13 C16.8590731,13 17.8244906,12.2844848 18.1025697,11.2591204 L19.9791447,4.30215884 C20.0299564,4.11212471 19.9868964,3.91051645 19.8611578,3.7552005 C19.7362812,3.60069466 19.5433719,3.50980003 19.3392605,3.50897512 L19.3393464,3.50256831 Z" id="Fill-1"></path>
                        <path d="M7.99972733,15 C7.19071559,15 6.46198249,15.4871708 6.15205731,16.2342339 C5.84292555,16.9820905 6.01377908,17.8419892 6.5859607,18.4142445 C7.15735093,18.9864591 8.01801686,19.1573199 8.76503949,18.8473779 C9.51206213,18.5382294 10,17.808643 10,16.9996079 C9.99841111,15.8957066 9.10358912,15.0008342 7.99974767,15.0000407 L7.99972733,15 Z" id="Fill-2"></path>
                        <path d="M14.9981578,15 C14.1891531,15.0007955 13.4604263,15.4887567 13.1512973,16.2358182 C12.8429616,16.9836732 13.0146091,17.84357 13.5867837,18.4150103 C14.1589624,18.9864303 15.0188275,19.1572907 15.7658436,18.8473493 C16.5128598,18.537408 17,17.8086167 17,16.9995832 C16.9984111,15.8948909 16.1027831,15.0000203 14.9981782,15.0000203 L14.9981578,15 Z" id="Fill-3"></path>
                    </g>
                </g>
            </g>
        </g>
    </g>
</svg>