<?xml version="1.0" encoding="UTF-8"?>
<svg width="52px" height="53px" viewBox="0 0 52 53" version="1.1" xmlns="http://www.w3.org/2000/svg" xmlns:xlink="http://www.w3.org/1999/xlink">
    <!-- Generator: Sketch 55 (78076) - https://sketchapp.com -->
    <title>icon/twitter</title>
    <desc>Created with Sketch.</desc>
    <defs>
        <polygon id="path-1" points="0 0 51.7875479 0 51.7875479 51.2534975 0 51.2534975"></polygon>
    </defs>
    <g id="icon/twitter" stroke="none" stroke-width="1" fill="none" fill-rule="evenodd">
        <g id="Group-25-Copy" transform="translate(0.000000, 0.138889)">
            <mask id="mask-2" fill="white">
                <use xlink:href="#path-1"></use>
            </mask>
            <g id="Clip-2"></g>
            <path d="M25.8937777,0 C11.5929861,0 0,11.4735145 0,25.6267636 C0,39.7800868 11.5929861,51.2535272 25.8937777,51.2535272 C40.1944944,51.2535272 51.7875554,39.7800868 51.7875554,25.6267636 C51.7875554,11.4735145 40.1944944,0 25.8937777,0 Z" id="Fill-1" fill="#2CAAE1" mask="url(#mask-2)"></path>
        </g>
        <path d="M35.6819133,19.9776272 C35.2375446,20.1789825 34.7762554,20.3378345 34.3029221,20.4528377 C34.8244811,19.946385 35.2166257,19.3129204 35.4378592,18.6058598 L35.4378592,18.6058598 C35.501006,18.4040062 35.2864529,18.2294584 35.1080813,18.3375355 L35.1080813,18.3375355 C34.4495984,18.7366585 33.7403053,19.0360755 32.9998534,19.2275649 C32.956894,19.2386766 32.9125693,19.2443071 32.8680983,19.2443071 C32.7332224,19.2443071 32.6021012,19.1931337 32.4989694,19.1002541 C31.7111695,18.3907519 30.6979425,18 29.6459984,18 C29.1908045,18 28.7312221,18.0724999 28.2799779,18.2155065 C26.8818719,18.6586277 25.8031088,19.837112 25.4646512,21.2910957 C25.3376748,21.8364642 25.3032976,22.382331 25.3623972,22.9134984 C25.3691751,22.9745378 25.3409419,23.0171409 25.3235338,23.0371219 C25.29296,23.0721511 25.2496105,23.0922318 25.2046031,23.0922318 C25.1995807,23.0922318 25.1944119,23.0919827 25.1892919,23.0914844 C22.1288871,22.8009368 19.3691491,21.2942847 17.4184227,18.8491205 L17.4184227,18.8491205 C17.3189481,18.7244008 17.1281909,18.739698 17.0489037,18.8786686 L17.0489037,18.8786686 C16.6669017,19.5483582 16.4650268,20.3143156 16.4650268,21.0937266 C16.4650268,22.2882057 16.9346542,23.4138721 17.7503948,24.234491 C17.4073537,24.1513777 17.0753328,24.0204793 16.7669127,23.8454333 L16.7669127,23.8454333 C16.6177008,23.7607255 16.4341116,23.8695999 16.4320148,24.0439982 L16.4320148,24.0439982 C16.4106571,25.8184763 17.4273461,27.3974289 18.9503805,28.1084259 C18.9197092,28.1091734 18.8890378,28.1095221 18.8583177,28.1095221 C18.6168967,28.1095221 18.3724525,28.0857043 18.1318605,28.0387164 L18.1318605,28.0387164 C17.9638264,28.0059295 17.8226602,28.1688176 17.8748356,28.3352932 L17.8748356,28.3352932 C18.3691854,29.9124022 19.6980493,31.0748916 21.2882778,31.338831 C19.9684837,32.2441577 18.4315521,32.7217101 16.8319125,32.7217101 L16.3332229,32.7214111 C16.1795736,32.7214111 16.0496227,32.823758 16.0104668,32.9758334 C15.971896,33.1256166 16.0429423,33.2836215 16.173966,33.3615028 C17.9765045,34.4334546 20.0325571,35 22.1207438,35 C23.9485898,35 25.6583829,34.6293288 27.2026776,33.8983507 C28.6183867,33.2282127 29.8694262,32.2702676 30.9210289,31.0511236 C31.9006589,29.9154417 32.6667109,28.6044148 33.1978274,27.1545169 C33.7041239,25.7724351 33.9717301,24.2977229 33.9717301,22.8897803 L33.9717301,22.8227116 C33.9716813,22.5966416 34.0717411,22.3839255 34.2463093,22.239125 C34.908742,21.6895212 35.4855972,21.0425532 35.9607836,20.3162091 L35.9607836,20.3162091 C36.0862484,20.1244207 35.8883719,19.88405 35.6819133,19.9776272 L35.6819133,19.9776272 Z" id="Shape" fill="#FFFFFF" fill-rule="nonzero"></path>
    </g>
</svg>