<?xml version="1.0" encoding="UTF-8" standalone="no"?>
<svg
   xmlns:dc="http://purl.org/dc/elements/1.1/"
   xmlns:cc="http://creativecommons.org/ns#"
   xmlns:rdf="http://www.w3.org/1999/02/22-rdf-syntax-ns#"
   xmlns:svg="http://www.w3.org/2000/svg"
   xmlns="http://www.w3.org/2000/svg"
   xmlns:sodipodi="http://sodipodi.sourceforge.net/DTD/sodipodi-0.dtd"
   xmlns:inkscape="http://www.inkscape.org/namespaces/inkscape"
   width="1181.25"
   height="1511.6201"
   viewBox="0 0 1181.25 1511.6201"
   version="1.1"
   id="svg928"
   sodipodi:docname="flourish-big-2.svg"
   inkscape:version="0.92.4 5da689c313, 2019-01-14">
  <metadata
     id="metadata934">
    <rdf:RDF>
      <cc:Work
         rdf:about="">
        <dc:format>image/svg+xml</dc:format>
        <dc:type
           rdf:resource="http://purl.org/dc/dcmitype/StillImage" />
        <dc:title>Group</dc:title>
      </cc:Work>
    </rdf:RDF>
  </metadata>
  <defs
     id="defs932" />
  <sodipodi:namedview
     pagecolor="#000000"
     bordercolor="#666666"
     borderopacity="1"
     objecttolerance="10"
     gridtolerance="10"
     guidetolerance="10"
     inkscape:pageopacity="0.19607843"
     inkscape:pageshadow="2"
     inkscape:window-width="3840"
     inkscape:window-height="2098"
     id="namedview930"
     showgrid="false"
     inkscape:pagecheckerboard="false"
     inkscape:zoom="1.0330215"
     inkscape:cx="1187.5"
     inkscape:cy="818.93277"
     inkscape:window-x="1920"
     inkscape:window-y="34"
     inkscape:window-maximized="1"
     inkscape:current-layer="svg928" />
  <!-- Generator: Sketch 55.2 (78181) - https://sketchapp.com -->
  <title
     id="title913">Group</title>
  <desc
     id="desc915">Created with Sketch.</desc>
  <g
     id="Symbols"
     style="opacity:0.07137278;fill:none;fill-rule:evenodd;stroke:none;stroke-width:1"
     transform="translate(0,-304.50179)">
    <g
       id="newsletter"
       transform="translate(0,329)"
       style="fill:#fefefe">
      <g
         transform="translate(0,-350)"
         id="Group-20">
        <g
           id="g923">
          <g
             id="Group">
            <g
               transform="translate(0,21.315412)"
               id="g920">
              <path
                 d="m 296.49103,523.70606 c 13.96689,-23.2895 33.11794,-42.16849 55.98147,-55.64936 4.06378,26.41523 1.63311,53.33863 -7.44394,78.97723 -13.15033,37.12514 -38.45402,66.37845 -69.77744,84.89308 -5.51649,-36.21427 1.00645,-74.49958 21.23991,-108.22095 z M 904.5,561.69688 519.75,966.35623 c 6.81807,-95.04715 50.91203,-191.04921 124.66505,-268.609 C 718.05396,620.30318 811.10106,572.05619 904.5,561.69688 Z M 803.48513,853.69348 C 729.84986,931.16277 636.79785,979.40746 543.375,989.76628 l 384.75,-404.65936 c -6.81773,95.07156 -50.91902,191.05941 -124.63987,268.58656 z m 29.74078,393.74462 c 14.40054,52.9988 6.89265,101.0881 -21.13938,135.3882 -25.48453,31.2125 -66.4559,48.3865 -115.35813,48.3865 -60.19772,0 -126.39407,-25.737 -181.60255,-70.6331 -66.40783,-53.9866 -105.36042,-125.454 -109.70558,-189.0201 0.10574,-1.4287 -0.01,-2.8287 -0.24994,-4.2 -1.54772,-34.7796 7.42137,-67.0085 28.17622,-92.4196 25.48454,-31.1933 66.4559,-48.3865 115.36775,-48.3865 60.1881,0 126.37483,25.7467 181.60254,70.6428 51.39205,41.7604 87.94135,95.1237 102.90907,150.2418 z m -435.62855,36.7993 c -5.77966,8.7882 -12.12017,17.5285 -18.82191,25.9337 -41.06599,51.4751 -93.70081,88.2361 -148.21781,103.5245 -52.4542,14.7331 -100.1649,7.5532 -134.35804,-20.1133 -72.407329,-58.5592 -63.443155,-191.2818 19.98165,-295.8592 46.00912,-57.6593 106.99972,-96.9955 167.39144,-107.95682 44.91593,23.55002 93.61525,36.46422 140.36584,36.46422 1.5685,0 3.11798,-0.077 4.68647,-0.1053 -9.83873,7.4671 -18.76488,16.0255 -26.55981,25.6562 -25.69476,31.7542 -36.92137,71.7318 -35.27683,114.4091 -8.98318,32.5297 -28.24237,65.7582 -54.48849,93.7214 -64.50782,68.7642 -143.61689,79.7925 -167.6481,56.9222 -7.01544,-6.6438 -18.07094,-6.3758 -24.73466,0.7084 -6.62569,7.065 -6.31199,18.2178 0.70345,24.9094 14.86741,14.1013 35.58102,20.7738 59.20347,20.7738 49.10808,0 110.68806,-28.7865 157.91394,-79.1319 15.80851,-16.8488 29.39261,-35.4782 40.30552,-54.8639 5.42793,17.2509 12.73806,34.5113 21.84482,51.4558 z M 168.75,825.89596 425.25,996.45486 C 374.09071,995.96241 320.10772,978.57506 272.93203,947.21912 224.88166,915.24761 188.50637,872.45163 168.75,825.89596 Z m 273.375,143.80457 -256.5,-170.55891 c 50.79603,0.51145 105.17689,17.89126 152.31203,49.24122 48.0575,31.96558 84.42867,74.76632 104.18797,121.31769 z m 612.9423,444.93067 c 25.8178,1.1206 50.3825,8.9935 72.1827,22.8073 -20.0879,16.4703 -43.6004,27.4055 -69.1121,31.7815 -35.9957,6.1824 -72.07746,-1.2365 -103.0129,-20.856 28.50575,-23.3966 63.497,-35.3171 99.9423,-33.7328 z m -565.85919,136.9813 c 2.04328,48.9215 -14.63737,114.3393 -52.15025,203.9967 -37.5036,-89.6574 -54.18425,-155.0752 -52.14097,-203.9967 1.76466,-42.2749 17.11717,-75.0752 52.14097,-110.3668 35.03308,35.2916 50.38559,68.0919 52.15025,110.3668 z M 130.69504,678.70317 c 21.68789,7.79474 44.10951,11.67296 66.47396,11.67296 19.3533,0 38.64943,-2.97809 57.36429,-8.7619 15.799,39.33758 43.66165,72.38384 80.40529,94.7626 31.17873,18.9889 66.15951,28.72754 101.7025,28.72754 15.74182,0 31.598,-1.91517 47.29218,-5.77423 24.18448,-5.96576 46.51081,-16.37471 66.29291,-30.34587 -42.91839,72.94881 -64.9398,153.4817 -62.30028,232.01323 -0.44786,0.1341 -0.91478,0.2203 -1.35311,0.3352 C 471.67903,931.2183 424.32967,865.0013 356.08332,819.2096 302.88319,783.50126 241.49768,763.85162 183.25673,763.85162 c -16.55178,0 -32.77006,1.58001 -48.20696,4.70174 -8.76663,1.77153 -14.44589,10.33234 -12.73068,19.1517 13.36912,68.17046 57.59298,132.89362 121.95152,179.15454 -56.52574,18.97934 -111.07898,58.202 -153.616223,111.3959 -95.7183144,119.7459 -102.283762,274.731 -14.645998,345.487 29.015661,23.4225 65.025561,35.3828 104.799401,35.3828 19.63917,0 40.18359,-2.9207 61.24257,-8.8003 61.66185,-17.2461 120.79852,-58.2498 166.52795,-115.4464 4.89789,-6.1381 9.53849,-12.4486 14.01709,-18.8261 l 0.50504,0.7278 v 92.9431 c -34.13271,31.6769 -67.57933,73.4947 -70.47613,140.8416 -2.6681,61.9558 19.60106,140.6501 72.22945,255.1389 0.0667,0.1628 0.18105,0.2969 0.25728,0.4501 0.28587,0.5937 0.63844,1.1395 0.98149,1.6949 0.29539,0.4597 0.56221,0.9193 0.87666,1.3311 0.35257,0.4596 0.76232,0.8714 1.153,1.3023 0.40022,0.4213 0.79091,0.8618 1.21971,1.2353 0.39069,0.3447 0.81949,0.6416 1.23876,0.9384 0.5241,0.383 1.02913,0.7469 1.59134,1.0629 0.15246,0.086 0.26681,0.2011 0.41927,0.2873 0.30493,0.1532 0.62891,0.2298 0.9529,0.3735 0.55268,0.2489 1.11489,0.4883 1.69615,0.6798 0.52409,0.1628 1.04818,0.2873 1.57228,0.4022 0.55268,0.1149 1.09583,0.2107 1.64851,0.2777 0.55267,0.067 1.09582,0.067 1.63898,0.067 0.55267,0 1.09583,0 1.6485,-0.067 0.56221,-0.067 1.09583,-0.1628 1.63898,-0.2777 0.53362,-0.1149 1.04819,-0.2394 1.58181,-0.4022 0.57174,-0.1915 1.13394,-0.4213 1.69615,-0.6703 0.31446,-0.1436 0.63844,-0.2298 0.9529,-0.383 0.15246,-0.086 0.27634,-0.2107 0.4288,-0.2969 0.54315,-0.3064 1.04819,-0.6703 1.57228,-1.0437 0.41927,-0.3064 0.84807,-0.6033 1.23876,-0.948 0.43833,-0.3831 0.81949,-0.814 1.21971,-1.2353 0.40021,-0.4309 0.80043,-0.8427 1.153,-1.3023 0.32398,-0.4214 0.60032,-0.881 0.88619,-1.3311 0.34304,-0.5554 0.68609,-1.1012 0.97196,-1.6949 0.0858,-0.1532 0.2001,-0.2873 0.27633,-0.4501 52.60934,-114.4888 74.88803,-193.1831 72.21993,-255.1389 -2.42036,-56.2198 -26.11886,-94.6477 -53.74329,-124.2466 -5.46009,-5.8508 -11.0917,-11.2708 -16.73284,-16.4992 v -51.7479 c 10.35797,10.8399 21.5259,21.268 33.56097,31.1215 60.87094,49.8423 134.55832,78.455 202.1567,78.455 59.20337,0 109.48765,-21.7755 141.53351,-61.3046 7.52787,-9.279 13.80745,-19.3145 18.9912,-29.9437 9.50989,29.6277 25.45183,56.2773 46.79668,78.0719 l 26.91929,22.8288 c 39.42127,27.6934 86.56099,38.5524 133.55779,30.5182 39.669,-6.7701 75.4979,-26.2952 103.5987,-56.4687 0.2192,-0.2299 0.3622,-0.498 0.5718,-0.747 0.1906,-0.2298 0.4288,-0.4117 0.6098,-0.6511 0.1716,-0.2298 0.2764,-0.4788 0.4288,-0.7086 0.3621,-0.5267 0.6957,-1.0725 1.0006,-1.6183 0.2668,-0.498 0.5145,-0.9959 0.7432,-1.4939 0.1049,-0.2489 0.2478,-0.4692 0.3431,-0.7182 0.1715,-0.4309 0.2668,-0.8714 0.4002,-1.3119 0.095,-0.2968 0.2001,-0.5841 0.2668,-0.8714 0.2573,-1.015 0.4383,-2.03 0.5241,-3.0738 0.01,-0.2011 0,-0.4022 0.01,-0.6033 0.048,-0.8522 0.029,-1.7141 -0.038,-2.5663 -0.029,-0.3352 -0.076,-0.6608 -0.1239,-0.9863 -0.095,-0.7661 -0.2477,-1.5226 -0.4383,-2.2791 -0.076,-0.2968 -0.1429,-0.5745 -0.2287,-0.8522 -0.3144,-1.0055 -0.6861,-1.9822 -1.172,-2.9302 -0.057,-0.1149 -0.1335,-0.2011 -0.1906,-0.316 -0.4288,-0.814 -0.9434,-1.5992 -1.5151,-2.3557 -0.2001,-0.2873 -0.4384,-0.5362 -0.6671,-0.8044 -0.2382,-0.2872 -0.4573,-0.6032 -0.7242,-0.8809 -0.2191,-0.2203 -0.4669,-0.3735 -0.686,-0.5937 -0.2287,-0.2011 -0.4003,-0.4501 -0.6385,-0.6512 -31.3121,-26.4198 -69.0849,-41.2911 -109.2399,-43.0339 -47.5685,-2.0492 -93.13595,14.6511 -129.15539,47.1132 -23.61274,-24.0641 -39.2021,-55.358 -44.52879,-90.1758 -13.45488,-87.8871 43.29956,-170.948 126.52538,-185.1586 105.5999,-18.0409 134.9967,57.2828 135.254,58.0488 6.251,17.8973 6.3367,36.9053 0.2858,53.529 -6.0127,16.5375 -17.8382,29.4936 -33.2941,36.5702 -11.7492,5.3625 -24.7658,5.5923 -36.6674,0.6224 -11.8921,-4.9698 -21.2496,-14.5265 -26.338,-26.9273 -3.6973,-9.03 -3.8497,-19.0368 -0.4288,-28.1817 0.028,-0.096 0.067,-0.1819 0.1048,-0.2777 3.4495,-9.0109 10.0054,-16.097 18.4671,-19.9656 8.738,-4.0027 12.7497,-14.7373 8.9667,-23.9684 -3.7925,-9.2407 -13.9504,-13.4828 -22.6979,-9.4801 -16.9997,7.7756 -30.1496,22.0724 -36.9438,40.2856 -6.8132,18.2037 -6.4987,38.1119 0.8576,56.0666 8.7571,21.335 24.842,37.7959 45.3197,46.3375 20.4682,8.5513 42.8708,8.1778 63.0721,-1.0725 24.2798,-11.0984 41.9751,-31.1885 51.2467,-55.3867 9.3384,-24.3992 10.1198,-52.9831 0.4479,-80.7435 -1.1244,-3.2462 -12.0065,-32.4238 -44.7479,-56.4209 -23.7176,-17.361 -65.2352,-35.8041 -128.4122,-25.0217 -49.42667,8.4459 -92.76434,36.6946 -122.06586,79.5657 -7.57552,11.0793 -13.9218,22.8288 -19.10555,35.0093 -17.94301,-59.217 -57.21182,-115.8007 -111.35532,-160.1465 -39.73573,-32.5387 -84.92202,-55.9421 -130.31794,-68.3237 76.31737,-22.5798 149.36631,-67.4235 209.91327,-130.50919 85.65574,-89.22776 134.11998,-201.99295 134.87277,-312.06733 29.20624,-1.13952 57.31663,4.45277 81.52023,16.40343 47.6066,23.50871 78.8806,55.26222 92.9549,94.37957 10.6915,29.70428 7.909,55.23349 5.9365,62.55901 -6.0413,22.45537 -19.3152,41.45385 -37.363,53.50027 -18.0097,12.01769 -39.6404,16.15446 -60.8995,11.63466 -33.7421,-7.17232 -55.40136,-40.58245 -48.26418,-74.49053 5.28858,-25.15576 29.95898,-41.30063 55.00108,-35.98604 9.7958,2.08754 19.42,-4.21337 21.4973,-14.06692 2.0678,-9.84397 -4.2022,-19.51558 -13.998,-21.59354 -44.605,-9.48009 -88.56206,19.28576 -97.98619,64.11031 -11.27275,53.56729 22.93618,106.35895 76.25069,117.68717 8.2044,1.74281 16.3707,2.58548 24.4036,2.58548 53.3622,-0.01 101.0831,-37.07768 116.3676,-93.85289 3.7544,-13.92328 6.5273,-47.37172 -6.8418,-84.48771 -7.8233,-21.74675 -20.0489,-41.93264 -36.353,-59.95439 -19.3151,-21.38287 -44.4525,-39.8068 -74.7069,-54.73555 -29.8447,-14.73723 -63.77731,-21.35414 -97.82426,-20.23376 1.12442,-34.21451 -5.46008,-68.30453 -20.12514,-98.29609 -14.86516,-30.40332 -33.18934,-55.66441 -54.47701,-75.08423 -17.93349,-16.3747 -38.01099,-28.66051 -59.65124,-36.53186 -36.93421,-13.43491 -70.22837,-10.63877 -84.08346,-6.86588 -65.01604,17.67701 -104.05615,78.5028 -90.82044,141.46401 5.46009,25.95055 20.64924,48.2144 42.76594,62.6835 22.12622,14.47868 48.53094,19.41982 74.34487,13.93286 21.61166,-4.57725 40.14547,-17.35144 52.1996,-35.95731 12.04459,-18.5963 16.17063,-40.79311 11.60626,-62.51114 -2.07731,-9.8344 -11.69202,-16.14488 -21.49731,-14.05734 -9.80529,2.07795 -16.06581,11.74956 -13.9885,21.59353 2.55375,12.19963 0.23822,24.64824 -6.51781,35.09549 -6.76555,10.43767 -17.16164,17.60998 -29.29199,20.18589 -16.35168,3.46645 -33.06546,0.33515 -47.05396,-8.81936 -14.00756,-9.16409 -23.62227,-23.25973 -27.07175,-39.68232 -4.49767,-21.36371 -0.38116,-43.10089 11.57767,-61.19924 11.97789,-18.13666 30.89286,-31.47582 53.22872,-37.5469 7.28965,-1.98221 32.70336,-4.77835 62.26217,5.95617 38.92577,14.14353 70.52377,45.57147 93.91734,93.42198 12.33999,25.23236 17.92396,54.69725 16.20875,85.2442 -108.25841,5.30502 -217.41255,57.61788 -302.27739,145.5529 15.91335,-41.07081 14.44589,-74.96932 9.25261,-98.05669 -9.22402,-41.05166 -31.84575,-62.6452 -34.39951,-64.97213 -43.42343,-39.61528 -106.17158,-39.81638 -145.94542,-0.45006 -34.03741,33.6591 -34.47574,88.87345 -0.97195,123.0688 28.20569,28.79458 74.46875,29.15846 103.10325,0.81395 7.13718,-7.0574 7.23247,-18.5963 0.20964,-25.76861 -7.02284,-7.17231 -18.50523,-7.25849 -25.65194,-0.20109 -14.38872,14.24886 -37.63936,14.05734 -51.80891,-0.41176 -19.46765,-19.87947 -19.21989,-51.95856 0.56221,-71.53159 12.61633,-12.47733 29.23482,-19.19 46.85385,-18.88358 17.72385,0.29685 35.21901,7.52662 49.25515,20.34868 0.60985,0.54582 58.50776,57.57 0.25728,154.18074 -22.24057,36.87659 -57.43098,62.84629 -99.12015,73.12118 -41.67963,10.28446 -84.84578,3.62924 -121.54177,-18.72079 -30.75945,-18.73036 -53.03814,-46.25135 -65.56871,-77.43988 44.09998,-23.08737 77.44178,-61.40992 94.27944,-108.72419 14.22672,-39.96001 15.39879,-82.51508 3.36372,-123.0688 -0.0953,-0.30643 -0.25728,-0.56498 -0.35257,-0.8714 -0.11435,-0.29686 -0.15246,-0.59371 -0.27634,-0.89056 -0.11435,-0.29685 -0.2954,-0.52667 -0.41927,-0.79479 -0.27634,-0.58413 -0.57174,-1.12995 -0.8862,-1.6662 -0.30492,-0.50752 -0.63844,-0.99589 -0.98148,-1.44595 -0.35257,-0.48837 -0.73373,-0.94801 -1.13394,-1.3885 -0.40022,-0.44049 -0.80996,-0.85225 -1.25782,-1.24486 -0.42881,-0.39261 -0.86714,-0.74692 -1.32453,-1.09165 -0.47645,-0.34473 -0.96242,-0.67988 -1.46746,-0.98631 -0.4955,-0.29685 -0.99101,-0.5554 -1.5151,-0.81395 -0.53362,-0.23939 -1.04819,-0.46922 -1.59134,-0.67031 -0.5622,-0.20109 -1.10535,-0.36388 -1.68662,-0.51709 -0.55268,-0.14364 -1.10536,-0.26813 -1.6771,-0.35431 -0.58126,-0.0958 -1.16253,-0.14364 -1.75332,-0.18194 -0.60033,-0.0383 -1.18159,-0.0479 -1.79145,-0.0191 -0.57173,0.0191 -1.14347,0.0766 -1.72474,0.15321 -0.61938,0.0862 -1.22923,0.21067 -1.85814,0.35431 -0.28587,0.0766 -0.57174,0.0862 -0.86714,0.17236 -0.30492,0.0958 -0.57173,0.24897 -0.8576,0.35431 -0.2954,0.10533 -0.60985,0.15321 -0.90525,0.26812 -38.89718,16.20234 -71.0288,43.94357 -92.91681,80.23604 -25.91874,42.98598 -34.47574,93.15385 -24.4894,142.11516 -31.99822,9.88228 -67.30298,9.8727 -101.15935,-2.2982 C 102.5084,629.85677 70.157613,600.39188 51.804853,561.4086 33.452093,522.42532 31.308079,478.58709 45.763498,437.98549 83.622021,331.62654 164.17025,340.81936 164.98021,340.93427 c 18.75297,2.87275 35.37146,11.96023 46.77762,25.58666 11.33945,13.53068 16.64708,30.73848 14.97951,48.4538 -1.27688,13.44449 -7.68986,25.59624 -18.05736,34.19535 -10.3675,8.60869 -23.45075,12.64012 -36.8294,11.35696 -20.11562,-1.92475 -34.91408,-19.93692 -32.99876,-40.15153 0.94337,-10.02592 -6.36534,-18.9123 -16.33262,-19.86989 -9.96728,-0.94801 -18.82921,6.38709 -19.77257,16.41301 -3.821113,40.21856 25.63287,76.05138 65.65447,79.8913 23.02195,2.20245 45.53886,-4.73047 63.37705,-19.53473 17.82867,-14.80426 28.8632,-35.69876 31.06439,-58.84359 5.28856,-55.84635 -34.42811,-104.65445 -92.41177,-113.52168 -3.39231,-0.52668 -34.33281,-4.55811 -71.867353,14.14352 -17.819139,8.87682 -33.856364,21.40203 -47.663814,37.21175 -16.323093,18.68248 -29.53022,42.05713 -39.287866,69.44405 -17.71432,49.76569 -15.0938585,103.50535 7.403995,151.27926 22.488325,47.78348 62.157349,83.91316 111.679308,101.71466 z"
                 id="Fill-1"
                 inkscape:connector-curvature="0" />
            </g>
          </g>
        </g>
      </g>
    </g>
  </g>
</svg>
