<?xml version="1.0" encoding="UTF-8"?>
<svg width="1182px" height="1513px" viewBox="0 0 1182 1513" version="1.1" xmlns="http://www.w3.org/2000/svg" xmlns:xlink="http://www.w3.org/1999/xlink">
    <!-- Generator: Sketch 55.2 (78181) - https://sketchapp.com -->
    <title>Fill 1</title>
    <desc>Created with Sketch.</desc>
    <g id="Symbols" stroke="none" stroke-width="1" fill="none" fill-rule="evenodd" opacity="0.0713727679">
        <g id="newsletter" transform="translate(0.000000, 25.000000)" fill="#FEFEFE">
            <g transform="translate(0.000000, -350.000000)" id="Group-20">
                <g>
                    <g id="Fill-1">
                        <path d="M296.491035,545.021476 C310.457917,521.731967 329.608971,502.852986 352.472501,489.37211 C356.536284,515.787341 354.10561,542.710743 345.028561,568.349338 C331.878233,605.474484 306.574535,634.727795 275.25112,653.242427 C269.734629,617.028151 276.257571,578.742844 296.491035,545.021476 L296.491035,545.021476 Z M904.5,583.012291 L519.75,987.671647 C526.568066,892.624492 570.662026,796.622428 644.415048,719.062638 C718.053959,641.618594 811.10106,593.371601 904.5,583.012291 L904.5,583.012291 Z M803.485131,875.008895 C729.84986,952.478182 636.797849,1000.72288 543.375,1011.08169 L928.125,606.422336 C921.307271,701.493896 877.205981,797.481737 803.485131,875.008895 L803.485131,875.008895 Z M833.225908,1268.75346 C847.626449,1321.75233 840.118557,1369.84159 812.08653,1404.14174 C786.601996,1435.35421 745.630632,1452.52826 696.728397,1452.52826 C636.530677,1452.52826 570.334335,1426.79116 515.125855,1381.89507 C448.718023,1327.90852 409.765426,1256.44108 405.42027,1192.87504 C405.526015,1191.44626 405.410657,1190.04626 405.170327,1188.67502 C403.622606,1153.89541 412.5917,1121.6665 433.346551,1096.25543 C458.831086,1065.06213 499.802449,1047.86891 548.714298,1047.86891 C608.902404,1047.86891 675.089133,1073.6156 730.31684,1118.51169 C781.708888,1160.27215 818.25819,1213.63541 833.225908,1268.75346 L833.225908,1268.75346 Z M397.597362,1305.55281 C391.817704,1314.34099 385.477191,1323.08131 378.775449,1331.48656 C337.709457,1382.96157 285.074643,1419.72259 230.557638,1435.01096 C178.103439,1449.74409 130.392741,1442.56421 96.1995998,1414.89771 C23.7922714,1356.33854 32.756445,1223.61593 116.181247,1119.03848 C162.190367,1061.3792 223.180969,1022.04299 283.572693,1011.08169 C328.488621,1034.63172 377.187944,1047.54595 423.938534,1047.54595 C425.507027,1047.54595 427.056507,1047.46936 428.625,1047.44064 C418.786273,1054.90772 409.860123,1063.46615 402.06519,1073.09677 C376.370427,1104.85102 365.143821,1144.82863 366.788362,1187.50589 C357.805176,1220.03556 338.545987,1253.26408 312.299875,1281.22735 C247.792046,1349.99152 168.682976,1361.01983 144.651766,1338.1495 C137.636326,1331.50571 126.580829,1331.77376 119.917111,1338.85791 C113.291418,1345.92292 113.605116,1357.07568 120.620556,1363.76733 C135.487966,1377.86863 156.201576,1384.54114 179.824028,1384.54114 C228.932109,1384.54114 290.512085,1355.75458 337.737975,1305.40921 C353.546481,1288.56041 367.130579,1269.93099 378.043486,1250.5453 C383.471421,1267.79617 390.781548,1285.05662 399.888312,1302.00116 L397.597362,1305.55281 Z M168.75,847.211374 L425.25,1017.77028 C374.090709,1017.27782 320.107723,999.890476 272.93203,968.534533 C224.881658,936.563026 188.506366,893.767041 168.75,847.211374 L168.75,847.211374 Z M442.125,991.015939 L185.625,820.457037 C236.421033,820.968486 290.801886,838.348294 337.93703,869.698248 C385.994527,901.663835 422.365704,944.464573 442.125,991.015939 L442.125,991.015939 Z M1055.06731,1435.9466 C1080.88511,1437.06716 1105.4498,1444.94008 1127.25,1458.75391 C1107.16205,1475.22425 1083.64959,1486.1594 1058.1379,1490.53539 C1022.14221,1496.7178 986.060437,1489.2989 955.125,1469.6794 C983.630752,1446.28282 1018.62204,1434.36236 1055.06731,1435.9466 L1055.06731,1435.9466 Z M489.208108,1572.9279 C491.251394,1621.8494 474.570744,1687.26724 437.057857,1776.9246 C399.554257,1687.26724 382.873607,1621.8494 384.916894,1572.9279 C386.681551,1530.65302 402.034064,1497.85272 437.057857,1462.56114 C472.090937,1497.85272 487.443451,1530.65302 489.208108,1572.9279 L489.208108,1572.9279 Z M130.69504,700.018584 C152.382933,707.813324 174.804555,711.691543 197.169004,711.691543 C216.522304,711.691543 235.81843,708.713454 254.53329,702.929642 C270.332291,742.267227 298.194944,775.31348 334.93858,797.692238 C366.117309,816.681146 401.098088,826.419784 436.641076,826.419784 C452.382904,826.419784 468.239079,824.504614 483.933261,820.645547 C508.117739,814.679794 530.444072,804.270846 550.226175,790.299683 C507.307778,863.248497 485.286372,943.781383 487.925892,1022.31292 C487.478031,1022.44698 487.011112,1022.53316 486.572781,1022.64807 C471.67903,952.533708 424.329671,886.316716 356.083323,840.525009 C302.883188,804.81667 241.497685,785.167029 183.256735,785.167029 C166.704947,785.167029 150.486672,786.747044 135.049771,789.86877 C126.283136,791.640302 120.603881,800.201111 122.319092,809.020467 C135.688211,877.190932 179.912073,941.914092 244.27061,988.175016 C187.744871,1007.15435 133.191626,1046.37702 90.6543874,1099.57086 C-5.06392736,1219.31685 -11.6293747,1374.30195 76.0083894,1445.0579 C105.024046,1468.48042 141.033952,1480.44066 180.807795,1480.44066 C200.446963,1480.44066 220.991382,1477.52003 242.050364,1471.64045 C303.712207,1454.39435 362.848878,1413.39057 408.578315,1356.19403 C413.476196,1350.05591 418.116795,1343.74542 422.595402,1337.36791 L423.100437,1338.09567 L423.100437,1431.03886 C388.967734,1462.71576 355.521115,1504.53349 352.624314,1571.88044 C349.956207,1633.83618 372.225366,1712.5305 424.853764,1827.01934 C424.920466,1827.18213 425.034814,1827.31619 425.111045,1827.46941 C425.396914,1828.06311 425.749485,1828.60893 426.092527,1829.16433 C426.387925,1829.62397 426.654736,1830.08362 426.969191,1830.49538 C427.321762,1830.95502 427.731507,1831.36678 428.122194,1831.79769 C428.52241,1832.21903 428.913097,1832.65952 429.3419,1833.03298 C429.732587,1833.37771 430.16139,1833.67456 430.580663,1833.97141 C431.104756,1834.35444 431.60979,1834.71833 432.171998,1835.03433 C432.324461,1835.12051 432.438809,1835.23542 432.591272,1835.3216 C432.896199,1835.47482 433.220183,1835.55142 433.544167,1835.69506 C434.096846,1835.94403 434.659055,1836.18343 435.240321,1836.37495 C435.764413,1836.53774 436.288505,1836.66222 436.812598,1836.77713 C437.365277,1836.89204 437.908427,1836.9878 438.461106,1837.05483 C439.013785,1837.12186 439.556935,1837.12186 440.100086,1837.12186 C440.652765,1837.12186 441.195915,1837.12186 441.748594,1837.05483 C442.310802,1836.9878 442.844424,1836.89204 443.387574,1836.77713 C443.921195,1836.66222 444.435758,1836.53774 444.96938,1836.37495 C445.541117,1836.18343 446.103325,1835.95361 446.665533,1835.70464 C446.979988,1835.561 447.303973,1835.47482 447.618428,1835.3216 C447.770891,1835.23542 447.894768,1835.11094 448.047231,1835.02475 C448.590381,1834.71833 449.095416,1834.35444 449.619508,1833.98099 C450.038782,1833.67456 450.467585,1833.37771 450.858272,1833.03298 C451.296603,1832.64994 451.677761,1832.21903 452.077977,1831.79769 C452.478193,1831.36678 452.878409,1830.95502 453.23098,1830.49538 C453.554965,1830.07404 453.831304,1829.6144 454.117173,1829.16433 C454.460215,1828.60893 454.803257,1828.06311 455.089126,1827.46941 C455.174886,1827.31619 455.289234,1827.18213 455.365465,1827.01934 C507.974805,1712.5305 530.253493,1633.83618 527.585387,1571.88044 C525.165033,1515.66063 501.466531,1477.23275 473.842102,1447.6338 C468.382013,1441.78296 462.750403,1436.36303 457.109264,1431.13462 L457.109264,1379.38673 C467.467234,1390.22659 478.635164,1400.65469 490.67023,1410.50824 C551.54117,1460.35053 625.22855,1488.96316 692.826929,1488.96316 C752.030303,1488.96316 802.314579,1467.18769 834.360441,1427.65858 C841.888313,1418.37959 848.167892,1408.3441 853.351641,1397.7149 C862.861534,1427.34258 878.80347,1453.99217 900.14832,1475.7868 L927.067608,1498.61562 C966.488879,1526.30897 1013.6286,1537.16799 1060.62539,1529.13385 C1100.29441,1522.36372 1136.12327,1502.83857 1164.22414,1472.66507 C1164.44331,1472.43525 1164.58625,1472.16713 1164.79588,1471.91815 C1164.98646,1471.68833 1165.22468,1471.50639 1165.40573,1471.267 C1165.57726,1471.03718 1165.68207,1470.7882 1165.83454,1470.55838 C1166.19664,1470.03171 1166.53015,1469.48589 1166.83508,1468.94007 C1167.10189,1468.44212 1167.34964,1467.94418 1167.57834,1467.44623 C1167.68315,1467.19726 1167.82609,1466.97702 1167.92138,1466.72804 C1168.0929,1466.29713 1168.18819,1465.85664 1168.32159,1465.41615 C1168.41688,1465.1193 1168.5217,1464.83203 1168.5884,1464.54475 C1168.84569,1463.52971 1169.02674,1462.51467 1169.1125,1461.4709 C1169.12203,1461.26981 1169.1125,1461.06872 1169.12203,1460.86763 C1169.16967,1460.01537 1169.15061,1459.15355 1169.08391,1458.3013 C1169.05532,1457.96614 1169.00768,1457.64056 1168.96003,1457.31499 C1168.86474,1456.54892 1168.71228,1455.79243 1168.5217,1455.03593 C1168.44547,1454.73908 1168.37877,1454.46138 1168.29301,1454.18368 C1167.97855,1453.17822 1167.60692,1452.20148 1167.12095,1451.25347 C1167.06377,1451.13856 1166.98754,1451.05238 1166.93037,1450.93747 C1166.50156,1450.12352 1165.987,1449.3383 1165.41526,1448.58181 C1165.21516,1448.29454 1164.97693,1448.04556 1164.74824,1447.77744 C1164.51001,1447.49016 1164.29085,1447.17416 1164.02404,1446.89646 C1163.80487,1446.67622 1163.55712,1446.523 1163.33795,1446.30276 C1163.10926,1446.10167 1162.93774,1445.85269 1162.69951,1445.6516 C1131.38738,1419.23184 1093.61462,1404.36054 1053.45962,1402.61774 C1005.89109,1400.56851 960.323647,1417.26879 924.304212,1449.73091 C900.691471,1425.66681 885.102107,1394.37293 879.775423,1359.55515 C866.320544,1271.66801 923.074977,1188.6071 1006.30084,1174.39654 C1111.90067,1156.35564 1141.29749,1231.67927 1141.55477,1232.44534 C1147.80576,1250.3426 1147.89152,1269.35066 1141.84064,1285.97433 C1135.82787,1302.51182 1124.00244,1315.46794 1108.54648,1322.54449 C1096.79729,1327.90697 1083.78074,1328.13679 1071.87908,1323.16692 C1059.98695,1318.19706 1050.62952,1308.64036 1045.54106,1296.23964 C1041.84382,1287.20961 1041.69136,1277.20285 1045.11226,1268.05792 C1045.14084,1267.96216 1045.17896,1267.87597 1045.21707,1267.78022 C1048.66655,1258.76934 1055.22247,1251.68322 1063.68418,1247.81457 C1072.42223,1243.81187 1076.43392,1233.07734 1072.65092,1223.84622 C1068.8584,1214.60553 1058.70054,1210.36343 1049.95296,1214.36613 C1032.95331,1222.14172 1019.80336,1236.43846 1013.00922,1254.65173 C1006.19602,1272.85542 1006.51047,1292.76361 1013.86682,1310.71832 C1022.62393,1332.05331 1038.7088,1348.51419 1059.18652,1357.05585 C1079.6547,1365.60708 1102.05727,1365.23363 1122.25864,1355.98336 C1146.53841,1344.88495 1164.23367,1324.79482 1173.50534,1300.59665 C1182.84372,1276.19739 1183.62509,1247.61348 1173.9532,1219.85309 C1172.82879,1216.60688 1161.94673,1187.42927 1129.20525,1163.4322 C1105.48769,1146.07118 1063.97005,1127.6281 1000.7931,1138.4105 C951.366433,1146.8564 908.028763,1175.10515 878.727238,1217.97623 C871.151722,1229.05549 864.80544,1240.80505 859.621691,1252.98553 C841.678676,1193.76848 802.409868,1137.18479 748.266367,1092.83904 C708.530641,1060.30031 663.344354,1036.89693 617.948431,1024.51536 C694.265801,1001.93551 767.314741,957.091812 827.861697,894.006122 C913.517439,804.778366 961.981685,692.013174 962.734472,581.938796 C991.940707,580.79927 1020.05111,586.391566 1044.25465,598.342225 C1091.86129,621.850933 1123.13531,653.604446 1137.20957,692.721787 C1147.90105,722.426069 1145.1186,747.955281 1143.1461,755.280805 C1137.10475,777.73617 1123.83092,796.734654 1105.78309,808.781071 C1087.77337,820.798761 1066.14265,824.935527 1044.88356,820.415727 C1011.14154,813.243416 989.482238,779.833281 996.619422,745.925201 C1001.90799,720.769447 1026.57844,704.624567 1051.62053,709.939163 C1061.41629,712.026698 1071.04053,705.72579 1073.11784,695.872241 C1075.18562,686.028269 1068.91558,676.356662 1059.11981,674.278703 C1014.51479,664.798613 970.557741,693.564462 961.133608,738.389009 C949.860859,791.956305 984.069794,844.747958 1037.38428,856.076187 C1045.5887,857.818991 1053.75501,858.661666 1061.78792,858.661666 C1115.15005,858.65209 1162.87103,821.58398 1178.15547,764.808775 C1181.90988,750.885491 1184.6828,717.437052 1171.31368,680.321063 C1163.49042,658.574312 1151.26477,638.388423 1134.96074,620.366676 C1115.64555,598.983806 1090.50818,580.559874 1060.25376,565.631126 C1030.40908,550.893895 996.476488,544.276984 962.429545,545.397358 C963.553962,511.182852 956.969456,477.092831 942.304401,447.101274 C927.439237,416.697955 909.115064,391.436866 887.827387,372.017046 C869.8939,355.642345 849.8164,343.356531 828.176152,335.485184 C791.241937,322.050268 757.947782,324.846416 744.092687,328.6193 C679.076653,346.296317 640.03654,407.122106 653.272253,470.08331 C658.732342,496.033859 673.92149,518.297707 696.038186,532.766814 C718.164411,547.245497 744.569134,552.186635 770.383063,546.699674 C791.994724,542.122418 810.528534,529.348236 822.582658,510.742363 C834.627252,492.146065 838.753288,469.949248 834.18892,448.231224 C832.111609,438.396827 822.496897,432.086343 812.691606,434.173878 C802.886316,436.251837 796.625795,445.923444 798.703106,455.767417 C801.256865,467.967048 798.94133,480.415651 792.185303,490.862901 C785.419748,501.300576 775.023662,508.472887 762.893307,511.04879 C746.541627,514.515247 729.827847,511.383945 715.839346,502.229433 C701.831788,493.065346 692.217076,478.969697 688.767596,462.547117 C684.269931,441.183399 688.386438,419.446223 700.345272,401.34787 C712.323163,383.211213 731.238132,369.872056 753.573993,363.800968 C760.863641,361.818767 786.277354,359.022619 815.83616,369.757145 C854.761926,383.900674 886.359928,415.328608 909.753503,463.179123 C922.093495,488.411484 927.67746,517.87637 925.962249,548.423326 C817.703835,553.728347 708.549699,606.041207 623.684859,693.976223 C639.598208,652.905409 638.130749,619.006906 632.937471,595.919535 C623.713446,554.867873 601.091716,533.274334 598.537957,530.947403 C555.114527,491.332118 492.366383,491.131025 452.592541,530.497338 C418.555127,564.156446 418.116795,619.370788 451.620588,653.566143 C479.826283,682.360719 526.089341,682.724601 554.72384,654.38009 C561.861024,647.32269 561.956314,635.783792 554.933477,628.611482 C547.91064,621.439171 536.428253,621.352989 529.28154,628.410389 C514.892824,642.659251 491.642183,642.467734 477.472632,627.998627 C458.004985,608.119166 458.252738,576.040074 478.03484,556.467039 C490.651172,543.989709 507.269663,537.277039 524.888693,537.583466 C542.612543,537.880317 560.107697,545.110083 574.143842,557.932144 C574.753695,558.477967 632.651602,615.502145 574.401124,712.11288 C552.160552,748.989473 516.970135,774.959174 475.280973,785.234059 C433.601341,795.518521 390.435192,788.863306 353.739201,766.513276 C322.979747,747.782916 300.701059,720.261928 288.170488,689.073389 C332.270474,665.986018 365.612274,627.663473 382.449931,580.349205 C396.676655,540.38919 397.848716,497.834119 385.813651,457.280401 C385.718361,456.973973 385.556369,456.715426 385.46108,456.408998 C385.346732,456.112147 385.308616,455.815296 385.18474,455.518444 C385.070393,455.221593 384.889342,454.991773 384.765466,454.723649 C384.489126,454.139522 384.193729,453.593699 383.879274,453.057451 C383.574347,452.549931 383.240834,452.061563 382.897792,451.611498 C382.54522,451.12313 382.164062,450.663489 381.763846,450.223 C381.36363,449.782511 380.953886,449.37075 380.506025,448.97814 C380.077222,448.58553 379.63889,448.231224 379.181501,447.886493 C378.705053,447.541763 378.219077,447.206608 377.714042,446.900181 C377.218537,446.60333 376.723031,446.344782 376.198939,446.086234 C375.665318,445.846838 375.150754,445.617017 374.607604,445.415924 C374.045396,445.214832 373.502246,445.052042 372.92098,444.898829 C372.368301,444.755191 371.815621,444.630705 371.243884,444.544522 C370.662618,444.448764 370.081352,444.400884 369.490557,444.362581 C368.890233,444.324278 368.308967,444.314702 367.699114,444.343429 C367.127377,444.362581 366.55564,444.420036 365.974374,444.496643 C365.354992,444.582826 364.74514,444.707312 364.116229,444.850949 C363.83036,444.927556 363.544492,444.937132 363.249094,445.023315 C362.944168,445.119073 362.677357,445.272287 362.391489,445.377621 C362.096091,445.482955 361.781636,445.530835 361.486238,445.645745 C322.58906,461.84808 290.457436,489.589313 268.569435,525.881779 C242.650688,568.867763 234.09369,619.035633 244.080031,667.996946 C212.081812,677.879222 176.777048,677.869646 142.920685,665.698743 C102.508403,651.172181 70.1576134,621.707295 51.8048534,582.724016 C33.4520934,543.740737 31.3080794,499.902502 45.7634983,459.300905 C83.6220214,352.941956 164.170246,362.13477 164.980207,362.24968 C183.733183,365.122435 200.351674,374.209915 211.757828,387.836347 C223.09728,401.367021 228.404906,418.574821 226.737339,436.290141 C225.46046,449.734632 219.047476,461.886384 208.679977,470.485496 C198.312478,479.094183 185.229228,483.125616 171.850581,481.842452 C151.734965,479.917706 136.936503,461.905535 138.851823,441.690919 C139.795189,431.665006 132.486483,422.778619 122.5192,421.821034 C112.551917,420.873025 103.689993,428.208125 102.746626,438.234038 C98.925517,478.452602 128.379505,514.285427 168.4011,518.125342 C191.423046,520.327787 213.939958,513.394873 231.778155,498.590611 C249.606822,483.786349 260.641348,462.891848 262.842536,439.747022 C268.131103,383.900674 228.414435,335.092574 170.430767,326.225338 C167.03846,325.698667 136.097956,321.667234 98.5634169,340.368866 C80.7442782,349.245678 64.7070533,361.770888 50.899603,377.580614 C34.5765096,396.263094 21.3693833,419.63774 11.6117372,447.024667 C-6.10258304,496.790351 -3.48212146,550.530013 19.0157323,598.303921 C41.5040571,646.087405 81.173081,682.217081 130.69504,700.018584 L130.69504,700.018584 Z"></path>
                    </g>
                </g>
            </g>
        </g>
    </g>
</svg>