<svg xmlns="http://www.w3.org/2000/svg" width="68.062" height="68.074" viewBox="0 0 68.062 68.074">
  <g id="Сгруппировать_305" data-name="Сгруппировать 305" transform="translate(0)">
    <path id="Контур_207" data-name="Контур 207" d="M501.3,378.746H457.967a1.861,1.861,0,0,1-1.039-1.893q.025-11.4.01-22.8v-.832c-.407,0-.734,0-1.062,0-1.264-.005-1.76-.5-1.763-1.78,0-.811,0-1.622,0-2.475H441.806c-2.979,0-4.709-1.724-4.709-4.693q0-14.426,0-28.852c0-3.028,1.71-4.746,4.721-4.746h41.608c3.019,0,4.716,1.71,4.716,4.752q0,10.038,0,20.077v.783a8,8,0,0,1,6.7,5.046.779.779,0,0,0,.873.563c2.5-.018,5.008.018,7.511-.023a1.929,1.929,0,0,1,1.928.979v9.307c-.526,1.342-1.739,1.018-2.825,1.079v.846q0,11.355.01,22.71A1.892,1.892,0,0,1,501.3,378.746Zm-16.01-42.439c.012-.2.024-.3.024-.414q0-10.333,0-20.666c0-1.222-.548-1.728-1.833-1.729q-20.862,0-41.724,0c-1.334,0-1.837.51-1.837,1.858q0,14.453,0,28.906c0,1.38.5,1.874,1.888,1.875q5.813,0,11.627,0h.612a1.519,1.519,0,0,0,.056-.227q.006-1.1.007-2.193c0-1.375.455-1.833,1.831-1.834,2.547,0,5.094-.01,7.64.008a.708.708,0,0,0,.806-.545,7.7,7.7,0,0,1,1.045-1.907c2.543-3.291,7.815-4.261,11.634-2.116a27.488,27.488,0,0,1,2.663,1.937A9,9,0,0,1,485.293,336.308Zm-11.384,16.949H459.838v22.628h14.071Zm25.515,22.626V353.255H485.358v22.628ZM456.97,350.348h45.32v-5.59H456.97Zm25.459,2.919h-5.564v22.609h5.564Zm-4.58-11.416a6,6,0,0,0-5.718-2.831,5.8,5.8,0,0,0-4.883,2.831Zm14.125,0a6.01,6.01,0,0,0-6.157-2.8,5.887,5.887,0,0,0-4.4,2.8Z" transform="translate(-437.097 -310.672)" fill="#a4006a"/>
    <path id="Контур_208" data-name="Контур 208" d="M470.635,365.39l-1.724-1.817,14.032-14.036,1.761,1.778Z" transform="translate(-459.439 -337.966)" fill="#a4006a"/>
    <path id="Контур_209" data-name="Контур 209" d="M469.958,357.258a4.25,4.25,0,1,1,4.222-4.286A4.237,4.237,0,0,1,469.958,357.258Zm0-5.636a1.409,1.409,0,0,0-1.444,1.406,1.418,1.418,0,0,0,2.835-.012A1.409,1.409,0,0,0,469.955,351.622Z" transform="translate(-457.167 -337.419)" fill="#a4006a"/>
    <path id="Контур_210" data-name="Контур 210" d="M498.5,385.838a4.235,4.235,0,0,1-4.246-4.262,4.252,4.252,0,0,1,8.5.012A4.236,4.236,0,0,1,498.5,385.838Zm-.025-5.637a1.407,1.407,0,0,0-1.386,1.4,1.417,1.417,0,0,0,2.835,0A1.411,1.411,0,0,0,498.474,380.2Z" transform="translate(-477.236 -357.49)" fill="#a4006a"/>
    <path id="Контур_211" data-name="Контур 211" d="M560.993,351.7v-2.753h8.434V351.7Z" transform="translate(-524.105 -337.549)" fill="#a4006a"/>
    <path id="Контур_212" data-name="Контур 212" d="M569.467,329.927v2.722h-8.428v-2.722Z" transform="translate(-524.138 -324.194)" fill="#a4006a"/>
    <path id="Контур_213" data-name="Контур 213" d="M456.3,332.638V329.9h2.749v2.737Z" transform="translate(-450.582 -324.176)" fill="#a4006a"/>
  </g>
</svg>
