<svg xmlns="http://www.w3.org/2000/svg" width="29.487" height="25.189" viewBox="0 0 29.487 25.189">
  <g id="Сгруппировать_418" data-name="Сгруппировать 418" transform="translate(0 0)">
    <path id="Контур_246" data-name="Контур 246" d="M8.369.215a4.531,4.531,0,0,1-1.815.3,3.08,3.08,0,0,1-3.2-2.43H7.069l.3-.972H3.181c-.014-.172-.029-.329-.029-.515v-.357H7.626l.314-.972H3.31A3.1,3.1,0,0,1,6.569-7.26a3.829,3.829,0,0,1,1.915.472l.429-1.129a4.529,4.529,0,0,0-2.4-.615,4.359,4.359,0,0,0-4.645,3.8H.48v.972H1.738v.4c0,.157.014.314.029.472H.48v.972H1.895a4.363,4.363,0,0,0,4.716,3.7,5.129,5.129,0,0,0,1.758-.343Z" transform="translate(9.109 15.781)" fill="#fff" stroke="#fff" stroke-width="0.4"/>
    <g id="Icon_ionic-ios-sync" data-name="Icon ionic-ios-sync" transform="translate(0)">
      <path id="Контур_243" data-name="Контур 243" d="M30.9,16.248a.831.831,0,0,0-1.18,0l-.8.8A12.63,12.63,0,0,0,24.907,6.91,12.532,12.532,0,0,0,7.49,7.3a12.651,12.651,0,0,0-2.064,2.752.881.881,0,0,0-.074.682.869.869,0,0,0,.442.522.88.88,0,0,0,.393.092A.868.868,0,0,0,6.95,10.9,10.782,10.782,0,0,1,24.041,8.5a10.833,10.833,0,0,1,3.1,8.859l-1.161-1.137a.816.816,0,0,0-1.149.006.816.816,0,0,0,0,1.155l2.629,2.636a.608.608,0,0,0,.86,0L30.9,17.427A.84.84,0,0,0,30.9,16.248Z" transform="translate(-1.656 -3.586)" fill="#fff"/>
      <path id="Контур_244" data-name="Контур 244" d="M26.474,22.325a.88.88,0,0,0-.393-.092.868.868,0,0,0-.762.448,10.8,10.8,0,0,1-17.1,2.4,10.9,10.9,0,0,1-3.09-8.841l1.13,1.137a.786.786,0,0,0,1.106,0l.08-.08a.782.782,0,0,0,0-1.1L4.811,13.559a.608.608,0,0,0-.86,0l-2.58,2.6a.834.834,0,1,0,1.18,1.18l.8-.8a12.785,12.785,0,0,0,.553,4.7A12.538,12.538,0,0,0,15.87,30.011a12.563,12.563,0,0,0,4.724-.922,12.409,12.409,0,0,0,4.153-2.771,12.545,12.545,0,0,0,2.1-2.789.865.865,0,0,0-.375-1.2Z" transform="translate(-1.127 -4.822)" fill="#fff"/>
    </g>
  </g>
</svg>
