<svg xmlns="http://www.w3.org/2000/svg" width="16.172" height="18.482" viewBox="0 0 16.172 18.482">
  <path id="Icon_awesome-calendar-alt" data-name="Icon awesome-calendar-alt" d="M0,16.749a1.733,1.733,0,0,0,1.733,1.733H14.439a1.733,1.733,0,0,0,1.733-1.733V6.931H0ZM11.551,9.674a.434.434,0,0,1,.433-.433h1.444a.434.434,0,0,1,.433.433v1.444a.434.434,0,0,1-.433.433H11.984a.434.434,0,0,1-.433-.433Zm0,4.62a.434.434,0,0,1,.433-.433h1.444a.434.434,0,0,1,.433.433v1.444a.434.434,0,0,1-.433.433H11.984a.434.434,0,0,1-.433-.433Zm-4.62-4.62a.434.434,0,0,1,.433-.433H8.808a.434.434,0,0,1,.433.433v1.444a.434.434,0,0,1-.433.433H7.364a.434.434,0,0,1-.433-.433Zm0,4.62a.434.434,0,0,1,.433-.433H8.808a.434.434,0,0,1,.433.433v1.444a.434.434,0,0,1-.433.433H7.364a.434.434,0,0,1-.433-.433ZM2.31,9.674a.434.434,0,0,1,.433-.433H4.187a.434.434,0,0,1,.433.433v1.444a.434.434,0,0,1-.433.433H2.743a.434.434,0,0,1-.433-.433Zm0,4.62a.434.434,0,0,1,.433-.433H4.187a.434.434,0,0,1,.433.433v1.444a.434.434,0,0,1-.433.433H2.743a.434.434,0,0,1-.433-.433ZM14.439,2.31H12.706V.578A.579.579,0,0,0,12.129,0H10.974A.579.579,0,0,0,10.4.578V2.31H5.776V.578A.579.579,0,0,0,5.2,0H4.043a.579.579,0,0,0-.578.578V2.31H1.733A1.733,1.733,0,0,0,0,4.043V5.776H16.172V4.043A1.733,1.733,0,0,0,14.439,2.31Z" fill="#a4006a"/>
</svg>
