<svg xmlns="http://www.w3.org/2000/svg" width="22.682" height="22.677" viewBox="0 0 22.682 22.677">
  <path id="Icon_awesome-instagram" data-name="Icon awesome-instagram" d="M11.338,7.762a5.814,5.814,0,1,0,5.814,5.814A5.8,5.8,0,0,0,11.338,7.762Zm0,9.594a3.78,3.78,0,1,1,3.78-3.78A3.787,3.787,0,0,1,11.338,17.356Zm7.408-9.832A1.356,1.356,0,1,1,17.39,6.168,1.353,1.353,0,0,1,18.747,7.524ZM22.6,8.9a6.711,6.711,0,0,0-1.832-4.752,6.755,6.755,0,0,0-4.752-1.832c-1.872-.106-7.484-.106-9.356,0A6.746,6.746,0,0,0,1.906,4.144,6.733,6.733,0,0,0,.074,8.9c-.106,1.872-.106,7.484,0,9.356A6.711,6.711,0,0,0,1.906,23a6.764,6.764,0,0,0,4.752,1.832c1.872.106,7.484.106,9.356,0A6.711,6.711,0,0,0,20.766,23,6.755,6.755,0,0,0,22.6,18.252c.106-1.872.106-7.479,0-9.351Zm-2.419,11.36a3.827,3.827,0,0,1-2.156,2.156c-1.493.592-5.035.455-6.685.455s-5.2.132-6.685-.455A3.827,3.827,0,0,1,2.5,20.261c-.592-1.493-.455-5.035-.455-6.685s-.132-5.2.455-6.685A3.827,3.827,0,0,1,4.654,4.736c1.493-.592,5.035-.455,6.685-.455s5.2-.132,6.685.455a3.827,3.827,0,0,1,2.156,2.156c.592,1.493.455,5.035.455,6.685S20.771,18.773,20.179,20.261Z" transform="translate(0.005 -2.238)" fill="#fff"/>
</svg>
