<svg xmlns="http://www.w3.org/2000/svg" width="18.073" height="23.49" viewBox="0 0 18.073 23.49">
  <path id="Icon_awesome-pinterest-p" data-name="Icon awesome-pinterest-p" d="M9.6.457C4.772.457,0,3.676,0,8.886c0,3.313,1.864,5.2,2.993,5.2.466,0,.734-1.3.734-1.666,0-.438-1.115-1.37-1.115-3.191A6.36,6.36,0,0,1,9.22,2.758c3.205,0,5.577,1.821,5.577,5.168,0,2.5-1,7.187-4.25,7.187a2.09,2.09,0,0,1-2.174-2.061c0-1.779,1.243-3.5,1.243-5.337C9.615,4.6,5.2,5.163,5.2,8.929a5.529,5.529,0,0,0,.452,2.386C5,14.11,3.671,18.276,3.671,21.156c0,.89.127,1.765.212,2.654.16.179.08.16.325.071C6.58,20.634,6.495,20,7.568,15.748a3.817,3.817,0,0,0,3.262,1.694c5,0,7.243-4.871,7.243-9.262C18.073,3.507,14.035.457,9.6.457Z" transform="translate(0 -0.457)" fill="#fff"/>
</svg>
