<svg xmlns="http://www.w3.org/2000/svg" width="13" height="13" viewBox="0 0 13 13">
  <g id="Сгруппировать_683" data-name="Сгруппировать 683" transform="translate(-88 -2131)">
    <path id="Контур_270" data-name="Контур 270" d="M1076.348,483.046c.738-.737,1.426-1.426,2.115-2.114a2.39,2.39,0,0,1,.3-.274.731.731,0,0,1,.948.086.7.7,0,0,1,.062.946,7.08,7.08,0,0,1-.561.59q-1.086,1.089-2.175,2.175c-.489.487-.846.489-1.328.012-.448-.443-.9-.887-1.336-1.337a.745.745,0,1,1,1.038-1.054C1075.719,482.378,1076.012,482.7,1076.348,483.046Z" transform="translate(-982.502 1654.828)" fill="#a4006a"/>
    <g id="Эллипс_98" data-name="Эллипс 98" transform="translate(88 2131)" fill="none" stroke="#a4006a" stroke-width="1.5">
      <circle cx="6.5" cy="6.5" r="6.5" stroke="none"/>
      <circle cx="6.5" cy="6.5" r="5.75" fill="none"/>
    </g>
  </g>
</svg>
