<svg xmlns="http://www.w3.org/2000/svg" width="62.762" height="62.754" viewBox="0 0 62.762 62.754">
  <g id="Сгруппировать_306" data-name="Сгруппировать 306" transform="translate(0 0)">
    <path id="Контур_214" data-name="Контур 214" d="M967.964,382.361h-2.329a1.639,1.639,0,0,0-.288-.092,11.526,11.526,0,0,1-7.809-4.481,1.023,1.023,0,0,0-.711-.315c-2.676-.022-5.353-.014-8.029-.014-1,0-2,0-3,0a1.036,1.036,0,0,1-1.109-.7,1.24,1.24,0,0,1,1.295-1.727c3.105-.039,6.211-.021,9.316-.023.211,0,.423-.019.594-.028l-.741-3.4H923.1c-1.374,0-1.726-.358-1.726-1.751q0-13.972,0-27.943c0-1.306.375-1.684,1.668-1.684h44.742c1.262,0,1.646.383,1.646,1.646q0,8.518,0,17.035v.651l3.383,1.414V336.765H927.11a5.637,5.637,0,0,1-.735-.017,1.218,1.218,0,0,1,.025-2.421,5.866,5.866,0,0,1,.673-.013h45.794c0-2,0-3.917,0-5.834,0-1.045-.487-1.518-1.553-1.519q-4.045,0-8.09,0h-.531c0,.442.006.825,0,1.208a3.676,3.676,0,1,1-7.352,0c-.006-.4,0-.8,0-1.176H935.473c0,.459.012.884,0,1.308a3.674,3.674,0,0,1-7.346-.022c-.012-.423,0-.846,0-1.321h-8.388c-1.4,0-1.791.385-1.791,1.774v44.488c0,1.4.388,1.785,1.78,1.785q8.029,0,16.058,0a1.23,1.23,0,1,1,.044,2.445q-8.335.008-16.671-.005a3.683,3.683,0,0,1-3.467-2.553c-.058-.17-.13-.335-.2-.5V327.572c.026-.03.064-.057.076-.092a3.763,3.763,0,0,1,4.075-2.972h8.478c0-.479-.008-.885,0-1.29a3.675,3.675,0,0,1,7.348-.029c.013.422,0,.845,0,1.279h19.864c0-.424-.006-.809,0-1.193a3.676,3.676,0,0,1,7.351-.021c.009.4,0,.8,0,1.253h8.453c2.676,0,4.176,1.5,4.176,4.169q0,16.879-.008,33.759a1.8,1.8,0,0,0,.407,1.217,11.5,11.5,0,0,1-5.57,18.187C969.437,382.064,968.694,382.189,967.964,382.361Zm7.846-11.518a9.072,9.072,0,1,0-9.091,9.066A9.083,9.083,0,0,0,975.81,370.842Zm-36.228-20.979v-7.177h-6.588v7.177Zm11.636-.028h6.618v-7.143h-6.618Zm-11.64,19.254v-7.157h-6.6v7.157Zm-6.584-16.742V359.4h6.588v-7.055Zm18.224,7.062h6.611v-7.046h-6.611Zm-27.344-16.741v7.174h6.569v-7.174Zm18.231,7.173h6.584v-7.155H942.1Zm24.836.02v-7.174h-6.567v7.174Zm-43.066,12.05v7.174h6.568v-7.174Zm18.22,7.162h6.6v-7.132h-6.6Zm-11.646-9.667v-7.043h-6.579v7.043Zm11.678-7.057V359.4h6.562V352.35Zm24.814,7.014V352.37h-6.566v6.994Zm-11.685,9.745c.282-.9.484-1.783.833-2.6a10.1,10.1,0,0,1,1.3-2.337,2.859,2.859,0,0,0,.441-2.236h-6.595v7.173Zm-22.23-43.376c0-.774.008-1.548,0-2.321a1.229,1.229,0,1,0-2.446,0q-.015,2.321,0,4.643a1.229,1.229,0,1,0,2.446,0C933.033,327.281,933.025,326.507,933.025,325.733Zm27.216.042c0-.794.01-1.588,0-2.382a1.226,1.226,0,1,0-2.444-.024q-.019,2.351,0,4.7a1.226,1.226,0,1,0,2.444.024C960.252,327.323,960.24,326.549,960.241,325.776Z" transform="translate(-915.494 -319.607)" fill="#a4006a"/>
    <path id="Контур_215" data-name="Контур 215" d="M933.151,371.457a1.222,1.222,0,1,1,1.268-1.143A1.239,1.239,0,0,1,933.151,371.457Z" transform="translate(-927.069 -354.303)" fill="#a4006a"/>
    <path id="Контур_216" data-name="Контур 216" d="M999.016,506.92a1.25,1.25,0,0,1-1.217,1.216,1.221,1.221,0,1,1,.011-2.442A1.248,1.248,0,0,1,999.016,506.92Z" transform="translate(-972.437 -450.289)" fill="#a4006a"/>
    <path id="Контур_217" data-name="Контур 217" d="M1077.831,484.693c1.219-1.219,2.357-2.358,3.5-3.494a3.952,3.952,0,0,1,.5-.452,1.208,1.208,0,0,1,1.567.142,1.164,1.164,0,0,1,.1,1.563,11.735,11.735,0,0,1-.928.974q-1.8,1.8-3.6,3.6c-.809.8-1.4.809-2.195.02-.74-.733-1.479-1.466-2.208-2.21a1.231,1.231,0,1,1,1.715-1.742C1076.792,483.589,1077.275,484.115,1077.831,484.693Z" transform="translate(-1026.862 -432.613)" fill="#a4006a"/>
  </g>
</svg>
