<svg xmlns="http://www.w3.org/2000/svg" width="17.162" height="17.162" viewBox="0 0 17.162 17.162">
  <path id="Icon_material-shopping-cart" data-name="Icon material-shopping-cart" d="M6.648,16.729a1.716,1.716,0,1,0,1.716,1.716A1.714,1.714,0,0,0,6.648,16.729ZM1.5,3V4.716H3.216l3.089,6.513-1.158,2.1a1.659,1.659,0,0,0-.215.824,1.721,1.721,0,0,0,1.716,1.716h10.3V14.155H7.009a.212.212,0,0,1-.215-.215l.026-.1.772-1.4h6.393a1.708,1.708,0,0,0,1.5-.884l3.072-5.569a.838.838,0,0,0,.1-.412.861.861,0,0,0-.858-.858H5.113L4.306,3ZM15.229,16.729a1.716,1.716,0,1,0,1.716,1.716A1.714,1.714,0,0,0,15.229,16.729Z" transform="translate(-1.5 -3)" fill="#a4006a"/>
</svg>
