<svg xmlns="http://www.w3.org/2000/svg" width="62.222" height="67.305" viewBox="0 0 62.222 67.305">
  <path id="Контур_218" data-name="Контур 218" d="M1413.191,332.42q-9.734-9.743-19.477-19.477a2.578,2.578,0,0,0-3.064-.749,2.619,2.619,0,0,0-1.567,2.669c.014,2.389.011,4.818.009,7.167q0,1.421,0,2.843v.609h-7.83q-10.145,0-20.29,0a2.614,2.614,0,0,0-2.9,2.894q0,6.052,0,12.1a2.622,2.622,0,0,0,2.943,2.914h3.232l-.005.006c-.127.138-.226.247-.331.351l-4.8,4.8-6.166,6.168a2.622,2.622,0,0,0-.013,4.145q2.657,2.664,5.32,5.321l.07.071a2.612,2.612,0,0,0,.441.384,1.116,1.116,0,0,0,1.531-1.563,2.635,2.635,0,0,0-.372-.421l-1.306-1.309c-1.326-1.331-2.7-2.707-4.06-4.046-.21-.206-.3-.361-.3-.5a.727.727,0,0,1,.274-.474q4.62-4.607,9.234-9.22,5.1-5.1,10.211-10.2a1.038,1.038,0,0,1,.415-.19l.121-.038c.018.037.037.074.055.112a1.12,1.12,0,0,1,.153.437c.017,1.521.015,3.069.014,4.565l0,2.936q0,2.006,0,4.012c0,1.1.62,1.341,1.135,1.347,1.811.02,3.694.021,5.76,0a1.08,1.08,0,0,0,1.1-1.1,1.109,1.109,0,0,0-1.077-1.133c-.422-.026-.851-.021-1.266-.017-.17,0-.343.006-.509,0h-2.844v-4.4h12.007v4.4l-.755,0c-.685,0-1.353,0-2.021.006a1.309,1.309,0,0,0-.985.39,1.094,1.094,0,0,0-.258.853,1.109,1.109,0,0,0,1.245,1.009c.679.008,1.359.006,2.056,0h.767c0,.384,0,.762,0,1.134,0,.962.009,1.87-.01,2.787a2.616,2.616,0,0,0,4.639,1.906q.762-.761,1.521-1.523c1.289-1.291,2.621-2.627,3.949-3.922a1.386,1.386,0,0,1,.848-.363c1.3-.032,2.625-.027,3.906-.021l1.062,0c.738,0,.738,0,.738.762q0,5.856,0,11.711c0,.918,0,.918-.911.918h-28.526c-1.227,0-1.582.352-1.582,1.57q0,4,0,7.994v3c0,.056,0,.112.007.169a.907.907,0,0,1-.012.308c-.107.346-.191.4-.214.412-.08.032-.318-.092-.446-.158a.762.762,0,0,1-.189-.176c-.034-.038-.067-.077-.1-.112l-9.994-9.992-.1-.1a4.142,4.142,0,0,0-.388-.362,1.065,1.065,0,0,0-1.493.049,1.126,1.126,0,0,0-.058,1.56,3.871,3.871,0,0,0,.312.328l2.479,2.479c2.4,2.409,4.891,4.9,7.354,7.333a10.553,10.553,0,0,0,1.251,1c.2.143.395.286.587.434l.04.031h1.258l.027-.011a3.064,3.064,0,0,0,1.963-3.3c-.052-2.269-.042-4.578-.031-6.811q.007-1.4.009-2.8v-.591h28.007c.175,0,.357,0,.536-.009a2.547,2.547,0,0,0,2.464-2.515c.02-4.112.02-8.329,0-12.89a2.462,2.462,0,0,0-2.013-2.417,5.291,5.291,0,0,0-1.06-.08h-.073c-.773-.006-1.546-.005-2.32,0h-.772l.284-.268c.28-.264.561-.528.835-.8l.339-.335c.563-.554,1.143-1.126,1.693-1.712a1.169,1.169,0,0,0,.338-.836,1.114,1.114,0,0,0-.367-.776,1.138,1.138,0,0,0-1.557.03c-.126.109-.243.228-.356.344l-2.215,2.217c-2.77,2.771-5.633,5.636-8.461,8.442a1.777,1.777,0,0,1-.558.317l-.155.068q-.027-.08-.057-.159a2,2,0,0,1-.155-.634c-.015-2.735-.014-5.516-.013-8.205v-2.851c0-1.186-.36-1.547-1.539-1.547q-4.407,0-8.812,0h-4.011v-.966c0-.949,0-1.86,0-2.772v-.125a4.014,4.014,0,0,0-.089-1.014,2.511,2.511,0,0,0-1.761-1.82,2.725,2.725,0,0,0-2.642.742q-1.3,1.28-2.588,2.576c-.988.989-2.009,2.011-3.026,3a1.387,1.387,0,0,1-.85.357c-1.241.03-2.5.026-3.726.021l-1.177,0c-.793,0-.793,0-.793-.772q0-4.764,0-9.528v-2.118c0-.486,0-.78.1-.877s.4-.1.889-.1h28.46c1.219,0,1.571-.355,1.572-1.582q0-2.566,0-5.131v-3.7c0-.857-.005-1.744.016-2.614a.631.631,0,0,1,.233-.435c.025-.006.114,0,.421.175a1.05,1.05,0,0,1,.232.215c.037.041.074.083.113.122l19.014,19.014c.636.636.636.636-.017,1.29l-2.615,2.616q-1.1,1.1-2.193,2.2a1,1,0,0,0-.142,1.438,1.8,1.8,0,0,0,1.166.446c.25.012.51-.235.728-.453l.057-.057c1.406-1.393,2.936-2.921,4.815-4.809A2.614,2.614,0,0,0,1413.191,332.42Z" transform="translate(-1351.925 -311.96)" fill="#a4006a"/>
</svg>
