<svg xmlns="http://www.w3.org/2000/svg" width="24.003" height="20.09" viewBox="0 0 24.003 20.09">
  <g id="Icon_feather-users" data-name="Icon feather-users" transform="translate(1 1.087)">
    <path id="Контур_297" data-name="Контур 297" d="M17.5,28.5v-2a4,4,0,0,0-4-4h-8a4,4,0,0,0-4,4v2" transform="translate(-1.5 -10.498)" fill="none" stroke="#a4006a" stroke-linecap="round" stroke-linejoin="round" stroke-width="2"/>
    <path id="Контур_298" data-name="Контур 298" d="M15.5,8.5a4,4,0,1,1-4-4,4,4,0,0,1,4,4Z" transform="translate(-3.5 -4.5)" fill="none" stroke="#a4006a" stroke-linecap="round" stroke-linejoin="round" stroke-width="2"/>
    <path id="Контур_299" data-name="Контур 299" d="M33,28.566v-2A4,4,0,0,0,30,22.7" transform="translate(-10.997 -10.563)" fill="none" stroke="#a4006a" stroke-linecap="round" stroke-linejoin="round" stroke-width="2"/>
    <path id="Контур_300" data-name="Контур 300" d="M24,4.7a4,4,0,0,1,0,7.751" transform="translate(-8.998 -4.565)" fill="none" stroke="#a4006a" stroke-linecap="round" stroke-linejoin="round" stroke-width="2"/>
  </g>
</svg>
